<svg xmlns="http://www.w3.org/2000/svg" viewBox="0 0 303.12 313.45"><defs><style>.cls-1{fill:#d4ecff;}.cls-2{fill:#173d7a;}.cls-3{fill:#396caa;}.cls-4{fill:#95d359;}.cls-5{fill:#c13d1a;}.cls-6{fill:#db5126;}.cls-7{fill:#ef602e;}.cls-8{fill:#5793ce;}.cls-9{fill:#274f89;}.cls-10{fill:#fff;}.cls-11{fill:#d3008d;}.cls-12{fill:#ff2c9c;}.cls-13{fill:#ffc2b0;}.cls-14{fill:#ea9c92;}.cls-15{fill:#b70083;}</style></defs><title>Asset 1</title><g id="Layer_2" data-name="Layer 2"><g id="Ñëîé_1" data-name="Ñëîé 1"><polygon class="cls-1" points="111.23 139.28 125.84 130.85 111.23 122.42 96.63 130.85 96.63 130.85 82.02 139.28 96.63 147.72 96.63 147.72 111.23 156.15 125.84 147.72 111.23 139.28 111.23 139.28"/><polygon class="cls-2" points="111.23 118.28 111.23 56.44 125.84 48 125.84 109.85 111.23 118.28"/><polygon class="cls-3" points="111.23 56.44 96.63 48 96.63 109.85 111.23 118.28 111.23 56.44"/><polygon class="cls-1" points="125.84 48 111.23 39.57 96.63 48 111.23 56.44 125.84 48"/><polygon class="cls-4" points="125.84 121.09 111.23 112.66 111.23 118.28 125.84 126.71 125.84 121.09"/><polygon class="cls-5" points="96.63 126.71 96.63 81.74 111.23 73.3 111.23 118.28 96.63 126.71"/><polygon class="cls-6" points="96.63 81.74 82.02 73.3 82.02 118.28 96.63 126.71 96.63 81.74"/><polygon class="cls-7" points="111.23 73.3 96.63 64.87 82.02 73.3 96.63 81.74 111.23 73.3"/><polygon class="cls-3" points="96.63 126.71 96.63 81.74 111.23 73.3 111.23 118.28 96.63 126.71"/><polygon class="cls-8" points="96.63 81.74 82.02 73.3 82.02 118.28 96.63 126.71 96.63 81.74"/><polygon class="cls-1" points="111.23 73.3 96.63 64.87 82.02 73.3 96.63 81.74 111.23 73.3"/><polygon class="cls-2" points="111.23 135.15 111.23 109.85 125.84 101.41 125.84 126.71 111.23 135.15"/><polygon class="cls-3" points="111.23 109.85 96.63 101.41 96.63 126.71 111.23 135.15 111.23 109.85"/><polygon class="cls-1" points="125.84 101.41 111.23 92.98 96.63 101.41 111.23 109.85 125.84 101.41"/><rect class="cls-8" x="299.32" y="165.24" width="1.75" height="5.08" transform="translate(388.21 -164.66) rotate(75.63)"/><rect class="cls-8" x="296.81" y="167.69" width="1.75" height="5.08" transform="translate(388.68 -160.39) rotate(75.62)"/><rect class="cls-8" x="294.29" y="170.14" width="1.75" height="5.08" transform="translate(389.16 -156.12) rotate(75.62)"/><rect class="cls-8" x="291.78" y="172.59" width="1.75" height="5.08" transform="translate(389.66 -151.84) rotate(75.63)"/><path class="cls-1" d="M172.58,292.59,62.27,228.9c-3.12-1.8-2.73-5,.88-7l75.11-43.35c3.6-2.08,9.06-2.31,12.18-.51L260.75,241.7c3.12,1.8,2.73,5-.88,7l-75.11,43.35C181.16,294.16,175.7,294.39,172.58,292.59Z"/><path class="cls-2" d="M264.83,116.42,152.7,51.74a4.27,4.27,0,0,0-3.84-.52h0l-.18.08-.05,0L145,53l4,2a1.7,1.7,0,0,0,0,.22l0,92.1c0,4.61,2.86,10,6.37,12l109.14,63,.62,5.14,4-1.91c1.31-.77,2.14-2.51,2.14-5l0-92.1C271.2,123.83,268.34,118.45,264.83,116.42Z"/><path class="cls-3" d="M264.83,116.42,152.7,51.74a4.27,4.27,0,0,0-3.84-.52h0l-.18.08-.05,0L145,53l4,2a1.7,1.7,0,0,0,0,.22l0,60.7,51,40.32,69.29-34.87A12.64,12.64,0,0,0,264.83,116.42Z"/><path class="cls-9" d="M266.7,117.87l-11,4.62,8.3,6.39,6.93-2.95A16.16,16.16,0,0,0,266.7,117.87Z"/><path class="cls-1" d="M261.18,227,149.05,162.26c-3.52-2-6.37-7.41-6.38-12l0-92.09c0-4.61,2.85-6.7,6.36-4.68l112.14,64.69c3.51,2,6.36,7.41,6.37,12l0,92.1C267.54,226.88,264.69,229,261.18,227Z"/><path class="cls-10" d="M257.45,220.1,152.72,159.71c-3.22-1.85-5.83-6.78-5.83-11l0-84.28c0-4.22,2.61-6.13,5.82-4.28l104.73,60.39c3.22,1.85,5.83,6.78,5.83,11l0,84.28C263.27,220,260.66,222,257.45,220.1Z"/><path class="cls-10" d="M257.45,220.1,152.72,159.71c-3.22-1.85-5.83-6.78-5.83-11l0-84.28c0-4.22,2.61-6.13,5.82-4.28l104.73,60.39c3.22,1.85,5.83,6.78,5.83,11l0,84.28C263.27,220,260.66,222,257.45,220.1Z"/><path class="cls-2" d="M262.85,229.81l-15.08-2-97.33-56.2c-3.12-1.8-8.58-1.58-12.18.5l-69,39.81-9.12-1.2v5.17h0a3.55,3.55,0,0,0,2.09,3.2l110.31,63.68c3.12,1.81,8.58,1.58,12.18-.5l75.11-43.35c2-1.17,3-2.68,3-4.1h0Z"/><path class="cls-3" d="M189.72,194.3l-6.92-4h-76L69.29,211.93l-9.12-1.2v5.17h0a3.55,3.55,0,0,0,2.09,3.2l110.31,63.68a11.31,11.31,0,0,0,6.29,1.18Z"/><path class="cls-8" d="M64.22,211.26l-4-.53v5.17h0a3.55,3.55,0,0,0,2.09,3.2l1.95,1.12Z"/><path class="cls-9" d="M173.7,283.3a14.13,14.13,0,0,0,10.34-.64V271.12H173.7Z"/><path class="cls-1" d="M172.58,277.62,62.27,213.93c-3.12-1.8-2.73-5,.88-7l75.11-43.35c3.6-2.08,9.06-2.31,12.18-.51l110.31,63.69c3.12,1.8,2.73,5-.88,7l-75.11,43.35C181.16,279.19,175.7,279.42,172.58,277.62Z"/><path class="cls-10" d="M259.87,231.87l-75.11,43.35c-3.6,2.08-9.06,2.31-12.18.51L62.27,212a4.14,4.14,0,0,1-1.94-2.12c-.48,1.47.14,3,1.94,4l110.31,63.69c3.12,1.8,8.58,1.57,12.18-.51l75.11-43.35c2.42-1.4,3.39-3.28,2.82-4.91A5.89,5.89,0,0,1,259.87,231.87Z"/><path class="cls-2" d="M109.19,192.85l-5-2.89c-.4-.23-.35-.63.11-.9l5.89-3.4a1.75,1.75,0,0,1,1.57-.07l5,2.89c.4.23.35.63-.11.9l-5.9,3.4A1.73,1.73,0,0,1,109.19,192.85Z"/><path class="cls-2" d="M116.9,197.3l-5-2.89c-.4-.23-.35-.63.11-.9l5.89-3.4a1.73,1.73,0,0,1,1.56-.07l5,2.89c.4.23.35.63-.12.9l-5.89,3.4A1.73,1.73,0,0,1,116.9,197.3Z"/><path class="cls-2" d="M124.61,201.75l-5-2.89c-.4-.23-.35-.63.12-.9l5.89-3.4a1.73,1.73,0,0,1,1.56-.07l5,2.89c.4.23.35.63-.11.9l-5.89,3.4A1.73,1.73,0,0,1,124.61,201.75Z"/><path class="cls-2" d="M135.27,198.07l-5-2.88c-.41-.23-.36-.64.11-.9l4.94-2.86a1.72,1.72,0,0,1,1.57-.06l5,2.88c.4.23.35.63-.12.9L136.83,198A1.76,1.76,0,0,1,135.27,198.07Z"/><path class="cls-2" d="M143,202.52l-5-2.88c-.4-.23-.35-.64.12-.9l4.94-2.86a1.69,1.69,0,0,1,1.56-.06l5,2.88c.41.23.36.63-.11.9l-4.94,2.86A1.78,1.78,0,0,1,143,202.52Z"/><path class="cls-2" d="M150.68,207l-5-2.88c-.4-.23-.35-.64.11-.9l4.95-2.86a1.69,1.69,0,0,1,1.56-.06l5,2.88c.4.23.35.63-.11.9l-4.94,2.86A1.78,1.78,0,0,1,150.68,207Z"/><path class="cls-2" d="M158.39,211.42l-5-2.88c-.4-.23-.35-.64.11-.9l5-2.86a1.69,1.69,0,0,1,1.56-.06l5,2.88c.4.23.35.63-.11.9l-5,2.86A1.76,1.76,0,0,1,158.39,211.42Z"/><path class="cls-2" d="M166.1,215.87l-5-2.88c-.4-.23-.35-.64.11-.9l4.94-2.86a1.72,1.72,0,0,1,1.57-.06l5,2.88c.4.23.35.63-.11.9l-5,2.86A1.76,1.76,0,0,1,166.1,215.87Z"/><path class="cls-2" d="M173.8,220.32l-5-2.88c-.4-.23-.35-.64.12-.9l4.94-2.86a1.72,1.72,0,0,1,1.56-.06l5,2.88c.4.23.35.63-.12.9l-4.94,2.86A1.78,1.78,0,0,1,173.8,220.32Z"/><path class="cls-2" d="M181.51,224.77l-5-2.88c-.4-.23-.35-.64.11-.9l5-2.86a1.72,1.72,0,0,1,1.56-.06l5,2.88c.4.23.35.63-.11.9l-4.94,2.86A1.78,1.78,0,0,1,181.51,224.77Z"/><path class="cls-2" d="M189.22,229.22l-5-2.88c-.4-.23-.35-.64.11-.9l4.95-2.86a1.72,1.72,0,0,1,1.56-.06l5,2.88c.4.23.35.63-.11.9l-4.95,2.86A1.76,1.76,0,0,1,189.22,229.22Z"/><path class="cls-2" d="M196.93,233.67l-5-2.88c-.4-.23-.35-.64.11-.9L197,227a1.75,1.75,0,0,1,1.57-.06l5,2.88c.4.23.35.63-.11.9l-4.95,2.86A1.76,1.76,0,0,1,196.93,233.67Z"/><path class="cls-2" d="M204.64,238.12l-5-2.88c-.4-.23-.35-.64.12-.9l4.94-2.86a1.75,1.75,0,0,1,1.57-.06l5,2.88c.4.23.35.63-.12.9l-4.94,2.86A1.76,1.76,0,0,1,204.64,238.12Z"/><path class="cls-3" d="M146.62,196l-5-2.88c-.4-.23-.35-.63.11-.9l4.95-2.86a1.76,1.76,0,0,1,1.56-.06l5,2.88c.4.23.35.64-.11.9l-4.94,2.86A1.75,1.75,0,0,1,146.62,196Z"/><path class="cls-3" d="M138.8,191.45l-5-2.88c-.4-.24-.35-.64.11-.91l5-2.85a1.73,1.73,0,0,1,1.56-.07l5,2.88c.4.24.35.64-.11.91l-4.95,2.85A1.73,1.73,0,0,1,138.8,191.45Z"/><path class="cls-2" d="M131,186.92l-10.74-6.2c-.41-.23-.36-.64.11-.91l4.94-2.85a1.75,1.75,0,0,1,1.57-.07l10.75,6.21c.4.23.35.64-.12.9l-4.94,2.86A1.74,1.74,0,0,1,131,186.92Z"/><path class="cls-2" d="M136.44,181.42l-8.72-5c-.4-.23-.35-.63.11-.9l5-2.85a1.73,1.73,0,0,1,1.56-.07l8.72,5c.4.23.35.63-.11.9L138,181.36A1.78,1.78,0,0,1,136.44,181.42Z"/><path class="cls-3" d="M154.33,200.41l-5-2.88c-.4-.23-.35-.63.11-.9l5-2.86a1.76,1.76,0,0,1,1.56-.06l5,2.88c.4.23.35.64-.11.9l-5,2.86A1.72,1.72,0,0,1,154.33,200.41Z"/><path class="cls-2" d="M162,204.86l-5-2.88c-.4-.23-.35-.63.11-.9l5-2.86a1.76,1.76,0,0,1,1.56-.06l5,2.88c.4.23.35.64-.11.9l-5,2.86A1.69,1.69,0,0,1,162,204.86Z"/><path class="cls-2" d="M169.75,209.31l-5-2.88c-.41-.23-.36-.63.11-.9l4.94-2.86a1.78,1.78,0,0,1,1.57-.06l5,2.88c.4.23.35.64-.11.9l-4.95,2.86A1.69,1.69,0,0,1,169.75,209.31Z"/><path class="cls-2" d="M177.45,213.76l-5-2.88c-.4-.23-.35-.63.12-.9l4.94-2.86a1.76,1.76,0,0,1,1.56-.06l5,2.88c.4.23.35.64-.12.9L179,213.7A1.72,1.72,0,0,1,177.45,213.76Z"/><path class="cls-2" d="M185.16,218.21l-5-2.88c-.4-.23-.35-.63.11-.9l4.95-2.86a1.76,1.76,0,0,1,1.56-.06l5,2.88c.4.23.35.64-.11.9l-4.94,2.86A1.72,1.72,0,0,1,185.16,218.21Z"/><path class="cls-2" d="M192.87,222.66l-5-2.88c-.4-.23-.35-.63.11-.9l4.95-2.86a1.76,1.76,0,0,1,1.56-.06l5,2.88c.4.23.35.64-.11.9l-4.95,2.86A1.69,1.69,0,0,1,192.87,222.66Z"/><path class="cls-2" d="M200.58,227.11l-5-2.88c-.4-.23-.35-.63.11-.9l4.94-2.86a1.78,1.78,0,0,1,1.57-.06l5,2.88c.4.23.35.64-.11.9l-5,2.86A1.69,1.69,0,0,1,200.58,227.11Z"/><path class="cls-2" d="M208.29,231.56l-5-2.88c-.4-.23-.35-.63.12-.9l4.94-2.86a1.78,1.78,0,0,1,1.57-.06l5,2.88c.4.23.35.64-.12.9l-4.94,2.86A1.69,1.69,0,0,1,208.29,231.56Z"/><path class="cls-2" d="M216,236l-5-2.88c-.4-.23-.35-.63.11-.9l4.95-2.86a1.76,1.76,0,0,1,1.56-.06l5,2.88c.4.23.35.64-.11.9L217.56,236A1.72,1.72,0,0,1,216,236Z"/><path class="cls-2" d="M229.7,243.93l-10.89-6.29c-.41-.23-.36-.64.11-.9l4.94-2.86a1.72,1.72,0,0,1,1.57-.06l10.89,6.28c.4.23.35.64-.12.91l-4.94,2.85A1.73,1.73,0,0,1,229.7,243.93Z"/><path class="cls-2" d="M244.7,235.26,235.51,230c-.4-.23-.35-.63.11-.9l4.95-2.85a1.73,1.73,0,0,1,1.56-.07l9.19,5.31c.4.23.35.63-.11.9l-4.94,2.86A1.78,1.78,0,0,1,244.7,235.26Z"/><path class="cls-2" d="M167.83,199.54l-5-2.88c-.4-.23-.35-.63.11-.9l5-2.86a1.76,1.76,0,0,1,1.56-.06l5,2.88c.4.23.35.64-.11.9l-5,2.86A1.72,1.72,0,0,1,167.83,199.54Z"/><path class="cls-2" d="M159.93,195l-5-2.88c-.4-.23-.35-.64.11-.9l4.95-2.86a1.76,1.76,0,0,1,1.56-.06l5,2.88c.4.23.35.63-.11.9l-4.95,2.86A1.76,1.76,0,0,1,159.93,195Z"/><path class="cls-3" d="M152,190.42l-5-2.88c-.4-.23-.35-.64.11-.9l4.95-2.86a1.72,1.72,0,0,1,1.56-.06l5,2.88c.4.23.35.63-.11.9l-4.95,2.86A1.76,1.76,0,0,1,152,190.42Z"/><path class="cls-2" d="M144.13,185.86l-5-2.88c-.4-.23-.35-.64.11-.9l4.95-2.86a1.69,1.69,0,0,1,1.56-.06l5,2.88c.4.23.35.63-.11.9l-4.95,2.86A1.76,1.76,0,0,1,144.13,185.86Z"/><path class="cls-2" d="M175.54,204l-5-2.88c-.41-.23-.36-.63.11-.9l4.94-2.86a1.78,1.78,0,0,1,1.57-.06l5,2.88c.4.23.35.64-.11.9l-5,2.86A1.72,1.72,0,0,1,175.54,204Z"/><path class="cls-2" d="M183.24,208.44l-5-2.88c-.4-.23-.35-.63.12-.9l4.94-2.86a1.76,1.76,0,0,1,1.56-.06l5,2.88c.4.23.35.64-.12.9l-4.94,2.86A1.74,1.74,0,0,1,183.24,208.44Z"/><path class="cls-2" d="M191,212.89,186,210c-.4-.23-.35-.63.11-.9l5-2.86a1.76,1.76,0,0,1,1.56-.06l5,2.88c.4.23.35.64-.11.9l-4.94,2.86A1.75,1.75,0,0,1,191,212.89Z"/><path class="cls-2" d="M198.66,217.34l-5-2.88c-.4-.23-.35-.63.11-.9l4.95-2.86a1.76,1.76,0,0,1,1.56-.06l5,2.88c.4.23.35.64-.11.9l-4.95,2.86A1.72,1.72,0,0,1,198.66,217.34Z"/><path class="cls-2" d="M206.37,221.79l-5-2.88c-.4-.23-.35-.63.11-.9l4.94-2.86a1.78,1.78,0,0,1,1.57-.06l5,2.88c.4.23.35.64-.11.9l-4.95,2.86A1.72,1.72,0,0,1,206.37,221.79Z"/><path class="cls-2" d="M214.08,226.24l-5-2.88c-.4-.23-.35-.63.12-.9l4.94-2.86a1.78,1.78,0,0,1,1.57-.06l5,2.88c.4.23.35.64-.12.9l-4.94,2.86A1.72,1.72,0,0,1,214.08,226.24Z"/><path class="cls-2" d="M221.78,230.69l-5-2.88c-.4-.23-.35-.63.11-.9l4.95-2.86a1.76,1.76,0,0,1,1.56-.06l5,2.88c.4.23.35.64-.11.9l-4.94,2.86A1.75,1.75,0,0,1,221.78,230.69Z"/><path class="cls-2" d="M229.49,235.14l-5-2.88c-.4-.23-.35-.63.11-.9l4.95-2.86a1.76,1.76,0,0,1,1.56-.06l5,2.88c.4.23.35.64-.11.9l-4.95,2.86A1.72,1.72,0,0,1,229.49,235.14Z"/><path class="cls-2" d="M237.2,239.59l-5-2.88c-.4-.23-.35-.63.11-.9l5-2.86a1.76,1.76,0,0,1,1.56-.06l5,2.88c.4.23.35.64-.11.9l-5,2.86A1.72,1.72,0,0,1,237.2,239.59Z"/><path class="cls-2" d="M163.77,188.54l-5-2.89c-.4-.23-.35-.63.11-.9l5-2.85a1.73,1.73,0,0,1,1.56-.07l5,2.88c.4.23.35.64-.11.91l-4.95,2.85A1.73,1.73,0,0,1,163.77,188.54Z"/><path class="cls-2" d="M156.1,184.11l-5-2.88c-.4-.24-.35-.64.11-.91l4.95-2.85a1.73,1.73,0,0,1,1.56-.07l5,2.89c.4.23.35.63-.11.9l-5,2.85A1.73,1.73,0,0,1,156.1,184.11Z"/><path class="cls-2" d="M148.43,179.68l-5-2.88c-.4-.23-.35-.64.11-.9L148.5,173a1.69,1.69,0,0,1,1.56-.06l5,2.88c.4.23.35.63-.11.9L150,179.62A1.76,1.76,0,0,1,148.43,179.68Z"/><path class="cls-2" d="M140.76,175.25l-5-2.88c-.4-.23-.35-.64.11-.9l5-2.86a1.76,1.76,0,0,1,1.56-.06l5,2.88c.4.23.35.63-.11.9l-4.94,2.86A1.78,1.78,0,0,1,140.76,175.25Z"/><path class="cls-2" d="M148.65,170.7l-5-2.88c-.4-.23-.35-.64.11-.91l1.63-.94a1.72,1.72,0,0,1,1.57-.06l5,2.88c.4.23.35.63-.11.9l-1.64.94A1.73,1.73,0,0,1,148.65,170.7Z"/><path class="cls-2" d="M158.66,176.48l-5-2.88c-.4-.24-.35-.64.11-.91l1.63-.94a1.75,1.75,0,0,1,1.57-.07l5,2.89c.4.23.35.63-.11.9l-1.64.94A1.73,1.73,0,0,1,158.66,176.48Z"/><path class="cls-2" d="M166.29,180.89l-5-2.88c-.4-.24-.35-.64.12-.91l1.63-.94a1.73,1.73,0,0,1,1.56-.07l5,2.89c.41.23.36.63-.11.9l-1.63.94A1.75,1.75,0,0,1,166.29,180.89Z"/><path class="cls-2" d="M173.93,185.3l-5-2.89c-.4-.23-.35-.63.11-.9l1.64-.94a1.73,1.73,0,0,1,1.56-.07l5,2.88c.4.24.35.64-.11.91l-1.63.94A1.75,1.75,0,0,1,173.93,185.3Z"/><path class="cls-2" d="M181.57,189.71l-5-2.89c-.4-.23-.35-.63.11-.9l1.64-.94a1.73,1.73,0,0,1,1.56-.07l5,2.88c.4.24.35.64-.11.91l-1.64.94A1.73,1.73,0,0,1,181.57,189.71Z"/><path class="cls-2" d="M224.21,214.32l-5-2.88c-.4-.23-.35-.63.11-.9l1.63-.94a1.75,1.75,0,0,1,1.57-.07l5,2.88c.4.23.35.64-.11.9l-1.64.95A1.72,1.72,0,0,1,224.21,214.32Z"/><path class="cls-2" d="M231.85,218.73l-5-2.88c-.4-.23-.35-.63.12-.9l1.63-.95a1.76,1.76,0,0,1,1.56-.06l5,2.88c.4.23.35.64-.12.9l-1.63.95A1.72,1.72,0,0,1,231.85,218.73Z"/><path class="cls-2" d="M239.48,223.14l-5-2.88c-.4-.23-.35-.63.11-.9l1.64-1a1.76,1.76,0,0,1,1.56-.06l5,2.88c.4.23.35.64-.11.9l-1.63,1A1.78,1.78,0,0,1,239.48,223.14Z"/><path class="cls-2" d="M247.12,227.55l-5-2.88c-.4-.23-.35-.64.11-.9l1.64-1a1.76,1.76,0,0,1,1.56-.06l5,2.88c.4.23.35.64-.11.9l-1.64,1A1.76,1.76,0,0,1,247.12,227.55Z"/><path class="cls-2" d="M171.48,193l-5-2.89c-.4-.23-.35-.63.11-.9l4.94-2.85a1.75,1.75,0,0,1,1.57-.07l5,2.88c.4.23.35.64-.11.91l-5,2.85A1.73,1.73,0,0,1,171.48,193Z"/><path class="cls-2" d="M179.19,197.44l-5-2.89c-.4-.23-.35-.63.12-.9l4.94-2.85a1.75,1.75,0,0,1,1.57-.07l5,2.88c.4.23.35.64-.12.91l-4.94,2.85A1.73,1.73,0,0,1,179.19,197.44Z"/><path class="cls-2" d="M186.89,201.89l-5-2.89c-.4-.23-.35-.63.11-.9l5-2.85a1.73,1.73,0,0,1,1.56-.07l5,2.88c.41.23.35.64-.11.91l-4.94,2.85A1.75,1.75,0,0,1,186.89,201.89Z"/><path class="cls-2" d="M194.6,206.34l-5-2.89c-.4-.23-.35-.63.11-.9l4.95-2.85a1.73,1.73,0,0,1,1.56-.07l5,2.88c.4.23.35.64-.11.91l-5,2.85A1.73,1.73,0,0,1,194.6,206.34Z"/><path class="cls-2" d="M202.31,210.79l-5-2.89c-.4-.23-.35-.63.11-.9l4.95-2.85a1.73,1.73,0,0,1,1.56-.07l5,2.88c.4.23.35.64-.11.91l-4.95,2.85A1.73,1.73,0,0,1,202.31,210.79Z"/><path class="cls-2" d="M210,215.24l-5-2.89c-.41-.23-.35-.63.11-.9l4.94-2.85a1.75,1.75,0,0,1,1.57-.07l5,2.88c.4.24.35.64-.11.91l-4.95,2.85A1.73,1.73,0,0,1,210,215.24Z"/><path class="cls-2" d="M217.72,219.69l-5-2.89c-.4-.23-.35-.63.12-.9l4.94-2.85a1.73,1.73,0,0,1,1.56-.07l5,2.88c.4.24.35.64-.12.91l-4.94,2.85A1.75,1.75,0,0,1,217.72,219.69Z"/><path class="cls-2" d="M225.43,224.14l-5-2.89c-.4-.23-.35-.63.11-.9l4.95-2.85a1.73,1.73,0,0,1,1.56-.07l5,2.88c.4.24.35.64-.11.91L227,224.07A1.75,1.75,0,0,1,225.43,224.14Z"/><path class="cls-2" d="M233.14,228.59l-5-2.89c-.4-.23-.35-.63.11-.9l5-2.85a1.73,1.73,0,0,1,1.56-.07l5,2.88c.4.24.35.64-.11.91l-5,2.85A1.73,1.73,0,0,1,233.14,228.59Z"/><path class="cls-2" d="M127.41,193.54l-14.7-8.49c-.4-.23-.35-.64.11-.9l5-2.86a1.69,1.69,0,0,1,1.56-.06l14.7,8.48c.4.23.35.64-.11.91L129,193.47A1.73,1.73,0,0,1,127.41,193.54Z"/><path class="cls-2" d="M222.1,248.21l-14.7-8.49c-.4-.23-.35-.64.12-.9l4.94-2.86a1.69,1.69,0,0,1,1.56-.06l14.7,8.48c.4.23.35.64-.11.91l-4.94,2.85A1.75,1.75,0,0,1,222.1,248.21Z"/><path class="cls-2" d="M191.28,240.24l-5-2.88c-.4-.23-.35-.64.11-.91l5.89-3.4a1.76,1.76,0,0,1,1.56-.06l5,2.88c.4.23.35.64-.12.9l-5.89,3.4A1.73,1.73,0,0,1,191.28,240.24Z"/><path class="cls-2" d="M135.3,207.92l-8-4.61c-.4-.23-.35-.63.11-.9l5.9-3.4a1.69,1.69,0,0,1,1.56-.06l8,4.6c.4.23.35.64-.11.91l-5.89,3.4A1.78,1.78,0,0,1,135.3,207.92Z"/><path class="cls-2" d="M183.85,236l-8-4.61c-.4-.23-.35-.63.11-.9l5.89-3.4a1.75,1.75,0,0,1,1.57-.07l8,4.61c.4.23.35.64-.11.91l-5.89,3.4A1.78,1.78,0,0,1,183.85,236Z"/><path class="cls-2" d="M146.43,214.34l-8-4.61c-.4-.23-.35-.63.12-.9l5.89-3.4a1.69,1.69,0,0,1,1.56-.06l8,4.6c.4.24.35.64-.11.91l-5.89,3.4A1.72,1.72,0,0,1,146.43,214.34Z"/><path class="cls-2" d="M146.06,205.4l34.71,20a.48.48,0,0,1,0,.9l-6,3.47a1.72,1.72,0,0,1-1.56,0l-34.7-20Z"/><path class="cls-2" d="M212.82,248.31l5.56,3.21c.33.19.29.52-.09.74l-2.41,1.39a1.42,1.42,0,0,1-1.28,0L209,250.49c-.33-.19-.29-.52.09-.74l2.41-1.39A1.42,1.42,0,0,1,212.82,248.31Z"/><path class="cls-2" d="M205.05,243.82l5.56,3.21c.33.19.29.52-.09.74l-2.41,1.39a1.42,1.42,0,0,1-1.28.05L201.27,246c-.33-.18-.29-.52.09-.74l2.41-1.39A1.42,1.42,0,0,1,205.05,243.82Z"/><path class="cls-2" d="M197.34,239.37l5.56,3.21c.33.19.29.52-.09.74l-2.41,1.39a1.42,1.42,0,0,1-1.28,0l-5.56-3.21c-.33-.18-.29-.52.09-.74l2.41-1.39A1.42,1.42,0,0,1,197.34,239.37Z"/><path class="cls-2" d="M209.31,241.36l5.55,3.21c.33.19.29.52-.09.74l-2.41,1.39a1.42,1.42,0,0,1-1.28.06l-5.56-3.21c-.33-.19-.29-.52.09-.74l2.41-1.39A1.44,1.44,0,0,1,209.31,241.36Z"/><path class="cls-1" d="M217.58,131.79,212.81,129a2,2,0,0,1-.82-1.54h0c0-.6.34-.87.78-.61l4.77,2.75a2,2,0,0,1,.82,1.54h0C218.37,131.77,218,132,217.58,131.79Z"/><path class="cls-1" d="M229,138.35l-7-4.06a2,2,0,0,1-.82-1.54h0c0-.6.34-.87.79-.62l7,4.07a2,2,0,0,1,.82,1.54h0C229.74,138.33,229.39,138.61,229,138.35Z"/><path class="cls-1" d="M215.21,157.24l-4.77-2.75a2,2,0,0,1-.82-1.54h0c0-.6.34-.87.79-.62l4.77,2.76a2,2,0,0,1,.82,1.54h0C216,157.22,215.66,157.5,215.21,157.24Z"/><path class="cls-1" d="M225.35,163.09l-7-4.06a2,2,0,0,1-.82-1.54h0c0-.6.34-.87.79-.61l7,4.06a2,2,0,0,1,.82,1.54h0C226.14,163.07,225.79,163.35,225.35,163.09Z"/><path class="cls-1" d="M204.49,128.7l-3-1.72a2,2,0,0,1-.82-1.54h0c0-.6.34-.87.78-.62l3,1.72a2,2,0,0,1,.81,1.54h0C205.28,128.68,204.93,129,204.49,128.7Z"/><path class="cls-1" d="M214.67,139.05l-9.11-5.26a2,2,0,0,1-.82-1.54h0c0-.6.34-.87.79-.62l9.11,5.26a2,2,0,0,1,.82,1.54h0C215.47,139,215.12,139.3,214.67,139.05Z"/><path class="cls-1" d="M208.69,144.53l-3-1.72a2,2,0,0,1-.82-1.54h0c0-.59.34-.87.78-.61l3,1.72a2,2,0,0,1,.82,1.54h0C209.48,144.51,209.13,144.79,208.69,144.53Z"/><path class="cls-1" d="M228.87,174.07l-8-4.6a2,2,0,0,1-.82-1.54h0c0-.6.34-.87.78-.62l8,4.6a2,2,0,0,1,.81,1.54h0C229.66,174.05,229.31,174.32,228.87,174.07Z"/><path class="cls-1" d="M207.77,152.94l-1.92-1.1a2,2,0,0,1-.81-1.54h0c0-.6.34-.87.78-.62l1.91,1.11a1.94,1.94,0,0,1,.82,1.54h0C208.56,152.92,208.21,153.2,207.77,152.94Z"/><path class="cls-1" d="M208.38,162.23,206,160.86a2,2,0,0,1-.82-1.54h0c0-.59.34-.87.79-.61l2.37,1.37a2,2,0,0,1,.82,1.54h0C209.17,162.22,208.82,162.49,208.38,162.23Z"/><path class="cls-1" d="M217.63,167.57,211.36,164a2,2,0,0,1-.82-1.54h0c0-.6.34-.87.78-.62l6.27,3.62a2,2,0,0,1,.82,1.54h0C218.42,167.55,218.07,167.83,217.63,167.57Z"/><path class="cls-1" d="M210.58,168l-4.51-2.61a1.92,1.92,0,0,1-.81-1.53h0c0-.6.34-.87.78-.62l4.51,2.6a2,2,0,0,1,.81,1.54h0C211.37,168,211,168.23,210.58,168Z"/><path class="cls-1" d="M235.71,178l-2.9-1.67a2,2,0,0,1-.81-1.54h0c0-.59.34-.87.78-.61l2.89,1.67a2,2,0,0,1,.82,1.54h0C236.5,178,236.15,178.29,235.71,178Z"/><path class="cls-1" d="M219.78,150.94l-8-4.6a2,2,0,0,1-.82-1.54h0c0-.59.34-.87.78-.61l8,4.59a2,2,0,0,1,.82,1.54h0C220.58,150.92,220.23,151.19,219.78,150.94Z"/><path class="cls-1" d="M219.52,146.31l-13.88-8a2,2,0,0,1-.82-1.54h0c0-.59.34-.87.78-.61l13.88,8a2,2,0,0,1,.82,1.54h0C220.31,146.3,220,146.57,219.52,146.31Z"/><path class="cls-1" d="M213.75,151.92l-8-4.6a2,2,0,0,1-.82-1.53h0c0-.6.34-.87.79-.62l8,4.6a2,2,0,0,1,.82,1.54h0C214.54,151.9,214.19,152.18,213.75,151.92Z"/><path class="cls-1" d="M225.82,154.43l-2.89-1.67a2,2,0,0,1-.82-1.54h0c0-.6.34-.87.79-.62l2.89,1.67a2,2,0,0,1,.82,1.54h0C226.62,154.41,226.27,154.68,225.82,154.43Z"/><path class="cls-1" d="M250.42,150.75l-17.14-9.9a2,2,0,0,1-.82-1.54h0c0-.59.34-.87.79-.61l17.13,9.89a2,2,0,0,1,.82,1.54h0C251.21,150.73,250.86,151,250.42,150.75Z"/><path class="cls-1" d="M215.5,161.88l-9.57-5.53a2,2,0,0,1-.82-1.54h0c0-.59.34-.87.78-.61l9.58,5.52a2,2,0,0,1,.82,1.54h0C216.3,161.86,216,162.13,215.5,161.88Z"/><path class="cls-1" d="M208.47,126.53l-7-4.07a1.94,1.94,0,0,1-.82-1.54h0c0-.59.34-.87.78-.61l7,4.06a2,2,0,0,1,.82,1.54h0C209.27,126.51,208.92,126.78,208.47,126.53Z"/><path class="cls-1" d="M210.32,172.3l-8.15-4.71a2,2,0,0,1-.82-1.54h0c0-.6.34-.87.78-.61l8.15,4.7a2,2,0,0,1,.82,1.54h0C211.11,172.28,210.76,172.55,210.32,172.3Z"/><path class="cls-1" d="M1.88,179.38l42-24.45c8.32-4.8,16.16-5.56,22.09-2.14s9.19,10.6,9.19,20.2v3.08c-.3.2-.61.4-.93.59V173c0-9.26-3.1-16.15-8.72-19.4s-13.15-2.48-21.17,2.15l-42,24.44a.45.45,0,0,1-.63-.16A.47.47,0,0,1,1.88,179.38Z"/><path class="cls-1" d="M132.83,150.26V55.63c0-18.94,13.34-42.05,29.75-51.52,8-4.64,15.61-5.38,21.33-2.07s8.88,10.23,8.88,19.51v6.6l-.93.92V21.55c0-8.93-3-15.58-8.41-18.71S170.78.44,163,4.91C146.89,14.23,133.75,37,133.75,55.63v94.63c0,15.7-9.24,34.28-21.76,45.46v-1.24C124,183.42,132.83,165.47,132.83,150.26Z"/><path class="cls-2" d="M192.79,31h0a37.18,37.18,0,0,1,19-9.28C223.46,20,228.3,33.67,228.3,33.67A75.3,75.3,0,0,1,229.61,45c-.05,4.21-.35,19.51-.35,19.51L192.12,43.12h0a.47.47,0,0,1-.26-.41V31.84C192.17,31.53,192.48,31.35,192.79,31Z"/><path class="cls-1" d="M219.12,22.33,183.91,2l.14.5c-5.43-3.5-13.63-3.88-24.6,4.16-21.78,16-24.4,38.22-25.51,42.39s-.66,30.58-.66,30.58-.07,63.69-.14,71.1-2.23,15.72-6.39,24.69-14.85,19.87-14.85,19.87v13c1.7,14,7.66,17.29,16.52,18.08,7.15.65,14.77-4.51,20.86-10.14l-.37.38v13c1.7,14,7.66,17.28,16.52,18.08s18.44-7.32,24.94-14.19,12-17.36,15-26.82,2-21.69,2-21.69.07-69.63.14-83.35.51-11.33,5-25.13S229,53,229,53l28.64-8.53Z"/><path class="cls-2" d="M157.83,246.49c-.48-.65-6.76-4.86-8.35-12.27a57.7,57.7,0,0,1-.8-10.38s0-3.49.11-6.65L149,217v-1.25c-.06.06-.12.1-.17.16,0-.72,0-1.39.08-2,.18-3.29-2.25-10.31-2.25-10.31s-3.45-9.41-13.73-9.77c-9.12-.32-18.73,6.24-20.77,7.72v-4.25l-.42.27c0-.57,0-1.15,0-1.72l.21-.18v-1.24l-.18.15c0-.71,0-1.38.09-1.95.18-3.3-2.26-10.32-2.26-10.32s-3.45-9.4-13.72-9.77c-9.13-.32-18.73,6.25-20.77,7.72v-4.24c-.3.2-.61.4-.93.59v7.43c0,9,3,15.78,8.45,19.15l0,0,.19.11.15.1.11.05,37.68,21.69,0-.05Z"/><path class="cls-1" d="M103,174.08a8.53,8.53,0,0,0-.78-.35l-.46-.23L66,152.79a19.22,19.22,0,0,0-14.53-.54c-8,2.91-49.6,27.9-49.6,27.9L39,201.59h0l.1,0,36.9,21.27s20.88-12.94,35.33-21.29l.92-.53c5.91-3.39,10.6-5.93,12.07-6.32,8.91-2.36,15.1.52,16.72,1.4Z"/><path class="cls-1" d="M141.09,196.14l.43.25Z"/><path class="cls-2" d="M229.8,52.33h0a37.1,37.1,0,0,1,19-9.28C260.47,41.26,265.32,55,265.32,55a75.61,75.61,0,0,1,1.3,11.33c-.05,4.21-.35,19.51-.35,19.51L229.13,64.4h0a.46.46,0,0,1-.25-.41V53.13C229.18,52.82,229.49,52.64,229.8,52.33Z"/><path class="cls-3" d="M165.07,248.18c4.09,0,8.63-1.37,13.32-4.08,16.28-9.4,29.53-32.35,29.53-51.15V98.32c0-18.64,13.14-41.4,29.29-50.72,7.74-4.47,15-5.2,20.41-2.07S266,55.3,266,64.24V85.39a.47.47,0,0,0,.93,0V64.24c0-9.28-3.15-16.21-8.88-19.51s-13.3-2.57-21.33,2.06C220.34,56.26,207,79.38,207,98.32V193c0,18.51-13.05,41.1-29.08,50.35-7.67,4.43-14.87,5.16-20.25,2s-8.35-9.7-8.35-18.57v-11.1c0-9.6-3.27-16.78-9.19-20.2s-13.77-2.66-22.09,2.14l-42,24.45a.47.47,0,0,0-.17.64.46.46,0,0,0,.63.16l42-24.44c8-4.63,15.54-5.4,21.16-2.15s8.73,10.14,8.73,19.4v11.1c0,9.21,3.13,16.09,8.81,19.38A15.58,15.58,0,0,0,165.07,248.18Z"/><path class="cls-8" d="M168,121.51l-6.21-3.58a2.57,2.57,0,0,1-1.07-2h0c0-.78.45-1.13,1-.8l6.21,3.58a2.59,2.59,0,0,1,1.07,2h0C169,121.49,168.54,121.85,168,121.51Z"/><path class="cls-8" d="M181.15,129.12,172,123.84a2.56,2.56,0,0,1-1.06-2h0c0-.78.44-1.13,1-.8l9.15,5.28a2.56,2.56,0,0,1,1.07,2h0C182.18,129.1,181.72,129.46,181.15,129.12Z"/><path class="cls-8" d="M167.26,97.86,155.42,91a2.56,2.56,0,0,1-1.07-2h0c0-.77.44-1.13,1-.8l11.85,6.85a2.55,2.55,0,0,1,1.06,2h0C168.3,97.83,167.84,98.19,167.26,97.86Z"/><path class="cls-8" d="M159.48,105l-3.87-2.24a2.54,2.54,0,0,1-1.07-2h0c0-.77.44-1.13,1-.8l3.88,2.24a2.56,2.56,0,0,1,1.06,2h0C160.52,105,160.06,105.32,159.48,105Z"/><path class="cls-8" d="M158.29,115.92l-2.49-1.43a2.56,2.56,0,0,1-1.07-2h0c0-.77.44-1.13,1-.79l2.49,1.43a2.59,2.59,0,0,1,1.07,2h0C159.32,115.9,158.86,116.26,158.29,115.92Z"/><path class="cls-8" d="M173.91,113.32l-10.36-6a2.56,2.56,0,0,1-1.06-2h0c0-.78.44-1.13,1-.8l10.35,6a2.54,2.54,0,0,1,1.07,2h0C174.94,113.29,174.48,113.65,173.91,113.32Z"/><path class="cls-8" d="M173.56,107.31,155.51,96.88a2.54,2.54,0,0,1-1.06-2h0c0-.77.44-1.13,1-.8l18.05,10.42a2.58,2.58,0,0,1,1.06,2h0C174.59,107.28,174.14,107.64,173.56,107.31Z"/><path class="cls-8" d="M166.06,114.6l-10.36-6a2.56,2.56,0,0,1-1.06-2h0c0-.78.44-1.13,1-.8l10.35,6a2.54,2.54,0,0,1,1.07,2h0C167.09,114.57,166.63,114.93,166.06,114.6Z"/><path class="cls-8" d="M181.76,117.85,178,115.68a2.54,2.54,0,0,1-1.06-2h0c0-.77.44-1.13,1-.8l3.76,2.17a2.58,2.58,0,0,1,1.06,2h0C182.8,117.83,182.34,118.19,181.76,117.85Z"/><path class="cls-8" d="M171,88.41l-6.2-3.58a2.54,2.54,0,0,1-1.07-2h0c0-.78.44-1.14,1-.8L171,85.61a2.56,2.56,0,0,1,1.06,2h0C172.08,88.39,171.62,88.74,171,88.41Z"/><path class="cls-8" d="M185.83,97l-9.15-5.29a2.53,2.53,0,0,1-1.07-2h0c0-.77.44-1.13,1-.8l9.15,5.29a2.54,2.54,0,0,1,1.07,2h0C186.86,96.92,186.4,97.28,185.83,97Z"/><path class="cls-8" d="M168,121.51l-6.21-3.58a2.57,2.57,0,0,1-1.07-2h0c0-.78.45-1.13,1-.8l6.21,3.58a2.59,2.59,0,0,1,1.07,2h0C169,121.49,168.54,121.85,168,121.51Z"/><path class="cls-8" d="M181.15,129.12,172,123.84a2.56,2.56,0,0,1-1.06-2h0c0-.78.44-1.13,1-.8l9.15,5.28a2.56,2.56,0,0,1,1.07,2h0C182.18,129.1,181.72,129.46,181.15,129.12Z"/><path class="cls-8" d="M154,84.4l-3.88-2.24a2.56,2.56,0,0,1-1.06-2h0c0-.78.44-1.13,1-.8L154,81.6a2.56,2.56,0,0,1,1.06,2h0C155.05,84.37,154.6,84.73,154,84.4Z"/><path class="cls-8" d="M167.26,97.86,155.42,91a2.56,2.56,0,0,1-1.07-2h0c0-.77.44-1.13,1-.8l11.85,6.85a2.55,2.55,0,0,1,1.06,2h0C168.3,97.83,167.84,98.19,167.26,97.86Z"/><path class="cls-8" d="M159.48,105l-3.87-2.24a2.54,2.54,0,0,1-1.07-2h0c0-.77.44-1.13,1-.8l3.88,2.24a2.56,2.56,0,0,1,1.06,2h0C160.52,105,160.06,105.32,159.48,105Z"/><path class="cls-8" d="M185.72,143.39l-10.35-6a2.54,2.54,0,0,1-1.07-2h0c0-.77.45-1.13,1-.8l10.36,6a2.56,2.56,0,0,1,1.06,2h0C186.76,143.37,186.3,143.72,185.72,143.39Z"/><path class="cls-8" d="M158.29,115.92l-2.49-1.43a2.56,2.56,0,0,1-1.07-2h0c0-.77.44-1.13,1-.79l2.49,1.43a2.59,2.59,0,0,1,1.07,2h0C159.32,115.9,158.86,116.26,158.29,115.92Z"/><path class="cls-8" d="M159.08,128,156,126.22a2.54,2.54,0,0,1-1.07-2h0c0-.77.45-1.13,1-.8l3.09,1.79a2.54,2.54,0,0,1,1.07,2h0C160.11,128,159.65,128.34,159.08,128Z"/><path class="cls-8" d="M171.1,135,163,130.24a2.55,2.55,0,0,1-1.06-2h0c0-.77.44-1.13,1-.8l8.15,4.71a2.56,2.56,0,0,1,1.06,2h0C172.14,134.93,171.68,135.28,171.1,135Z"/><path class="cls-8" d="M161.94,135.47l-5.86-3.38a2.56,2.56,0,0,1-1.06-2h0c0-.78.44-1.13,1-.8l5.86,3.38a2.58,2.58,0,0,1,1.06,2h0C163,135.45,162.52,135.81,161.94,135.47Z"/><path class="cls-8" d="M173.91,113.32l-10.36-6a2.56,2.56,0,0,1-1.06-2h0c0-.78.44-1.13,1-.8l10.35,6a2.54,2.54,0,0,1,1.07,2h0C174.94,113.29,174.48,113.65,173.91,113.32Z"/><path class="cls-8" d="M173.56,107.31,155.51,96.88a2.54,2.54,0,0,1-1.06-2h0c0-.77.44-1.13,1-.8l18.05,10.42a2.58,2.58,0,0,1,1.06,2h0C174.59,107.28,174.14,107.64,173.56,107.31Z"/><path class="cls-8" d="M166.06,114.6l-10.36-6a2.56,2.56,0,0,1-1.06-2h0c0-.78.44-1.13,1-.8l10.35,6a2.54,2.54,0,0,1,1.07,2h0C167.09,114.57,166.63,114.93,166.06,114.6Z"/><path class="cls-8" d="M181.76,117.85,178,115.68a2.54,2.54,0,0,1-1.06-2h0c0-.77.44-1.13,1-.8l3.76,2.17a2.58,2.58,0,0,1,1.06,2h0C182.8,117.83,182.34,118.19,181.76,117.85Z"/><path class="cls-8" d="M168.34,127.54l-12.45-7.19a2.55,2.55,0,0,1-1.06-2h0c0-.77.44-1.13,1-.8l12.45,7.19a2.56,2.56,0,0,1,1.06,2h0C169.37,127.52,168.92,127.88,168.34,127.54Z"/><path class="cls-8" d="M159.2,81.58l-9.15-5.29a2.57,2.57,0,0,1-1.07-2h0c0-.77.45-1.13,1-.8l9.16,5.29a2.55,2.55,0,0,1,1.06,2h0C160.23,81.55,159.78,81.91,159.2,81.58Z"/><path class="cls-8" d="M161.6,141.09,151,135a2.57,2.57,0,0,1-1.07-2h0c0-.78.45-1.13,1-.8l10.61,6.12a2.56,2.56,0,0,1,1.06,2h0C162.63,141.07,162.18,141.42,161.6,141.09Z"/><path class="cls-8" d="M166.51,177.2l-6.21-3.59a2.56,2.56,0,0,1-1.07-2h0c0-.77.45-1.13,1-.8l6.21,3.59a2.54,2.54,0,0,1,1.07,2h0C167.54,177.17,167.08,177.53,166.51,177.2Z"/><path class="cls-8" d="M179.69,184.81l-9.15-5.29a2.54,2.54,0,0,1-1.07-2h0c0-.77.44-1.13,1-.8l9.15,5.29a2.54,2.54,0,0,1,1.07,2h0C180.72,184.78,180.26,185.14,179.69,184.81Z"/><path class="cls-8" d="M165.8,153.54,154,146.7a2.54,2.54,0,0,1-1.07-2h0c0-.78.45-1.13,1-.8l11.85,6.84a2.54,2.54,0,0,1,1.06,2h0C166.84,153.52,166.38,153.87,165.8,153.54Z"/><path class="cls-8" d="M158,160.67l-3.87-2.23a2.56,2.56,0,0,1-1.07-2h0c0-.77.45-1.13,1-.79l3.88,2.23a2.56,2.56,0,0,1,1.06,2h0C159.06,160.65,158.6,161,158,160.67Z"/><path class="cls-8" d="M156.83,171.61l-2.49-1.44a2.54,2.54,0,0,1-1.07-2h0c0-.77.45-1.13,1-.8l2.49,1.44a2.57,2.57,0,0,1,1.07,2h0C157.86,171.58,157.4,171.94,156.83,171.61Z"/><path class="cls-8" d="M172.45,169l-10.36-6a2.56,2.56,0,0,1-1.06-2h0c0-.77.44-1.13,1-.8l10.35,6a2.54,2.54,0,0,1,1.07,2h0C173.48,169,173,169.34,172.45,169Z"/><path class="cls-8" d="M172.1,163l-18-10.42a2.56,2.56,0,0,1-1.06-2h0c0-.78.44-1.14,1-.8l18.05,10.42a2.56,2.56,0,0,1,1.06,2h0C173.14,163,172.68,163.32,172.1,163Z"/><path class="cls-8" d="M164.6,170.28l-10.36-6a2.56,2.56,0,0,1-1.06-2h0c0-.77.44-1.13,1-.8l10.35,6a2.56,2.56,0,0,1,1.07,2h0C165.63,170.26,165.17,170.62,164.6,170.28Z"/><path class="cls-8" d="M180.3,173.54l-3.76-2.17a2.58,2.58,0,0,1-1.06-2h0c0-.77.44-1.13,1-.8l3.76,2.18a2.54,2.54,0,0,1,1.06,2h0C181.34,173.51,180.88,173.87,180.3,173.54Z"/><polygon class="cls-1" points="211.89 306.81 223.38 300.17 234.88 306.81 223.38 313.45 211.89 306.81"/><polygon class="cls-1" points="236.29 292.53 247.79 285.9 259.28 292.53 247.79 299.17 236.29 292.53"/><polygon class="cls-1" points="260.62 278.6 272.12 271.96 283.61 278.6 272.12 285.23 260.62 278.6"/><polygon class="cls-5" points="247.79 292.53 247.79 257.13 236.29 250.5 236.29 285.9 247.79 292.53"/><polygon class="cls-11" points="247.79 257.13 259.28 250.5 259.28 285.9 247.79 292.53 247.79 257.13"/><polygon class="cls-11" points="247.79 292.53 247.79 257.13 236.29 250.5 236.29 285.9 247.79 292.53"/><polygon class="cls-11" points="223.38 306.81 223.38 286.9 211.89 280.26 211.89 300.17 223.38 306.81"/><polygon class="cls-11" points="223.38 286.9 234.88 280.26 234.88 300.17 223.38 306.81 223.38 286.9"/><polygon class="cls-12" points="211.89 280.26 223.38 273.62 234.88 280.26 223.38 286.9 211.89 280.26"/><polygon class="cls-11" points="272.12 278.6 272.12 229.92 260.62 223.28 260.62 271.96 272.12 278.6"/><polygon class="cls-11" points="272.12 229.92 283.61 223.28 283.61 271.96 272.12 278.6 272.12 229.92"/><polygon class="cls-12" points="260.62 223.28 272.12 216.65 283.61 223.28 272.12 229.92 260.62 223.28"/><polygon class="cls-12" points="236.29 250.5 247.79 243.86 259.28 250.5 247.79 257.13 236.29 250.5"/><path class="cls-8" d="M48.33,240.4s-3.55-1.79-5.73.87-5.3,9-5.39,13.21,3.36,4,5.42,3,8.06-9.72,8.43-11.43-.43-4-1-4.47S48.33,240.4,48.33,240.4Z"/><path class="cls-1" d="M49.1,239.54l.16,3.68a2.05,2.05,0,0,1-1,1.91,4.06,4.06,0,0,1-2.73.43c-2.68-.43-2.91-1.19-3.11-4.87S49.1,239.54,49.1,239.54Z"/><path class="cls-8" d="M35.33,233.33s-3.54-1.79-5.72.88-5.3,8.95-5.4,13.2,3.37,4,5.43,3,8.06-9.72,8.43-11.43-.43-4-1-4.47S35.33,233.33,35.33,233.33Z"/><path class="cls-1" d="M36.11,232.47l.16,3.68a2.07,2.07,0,0,1-1,1.91,4,4,0,0,1-2.73.43c-2.68-.43-2.92-1.19-3.11-4.87S36.11,232.47,36.11,232.47Z"/><path class="cls-2" d="M67.78,165c-1.06-17.09-18.51,2.52-18.51,2.52l-12,11.71L26.56,191a10.59,10.59,0,0,0-2.67,8.52l4.35,33.14a3.24,3.24,0,0,0,3.26,2.83,10,10,0,0,0,1.62-.14,4,4,0,0,0,3.59-4.3l-.79-31,22.59-13.62S68.83,182.06,67.78,165Z"/><path class="cls-2" d="M80.77,171.48c-1-17.09-18.51,2.52-18.51,2.52L50.31,185.71,39.55,197.53a10.6,10.6,0,0,0-2.67,8.52l4.35,33.14A3.24,3.24,0,0,0,44.5,242a10,10,0,0,0,1.61-.14,4,4,0,0,0,3.59-4.29l-.79-31L71.5,193S81.82,188.57,80.77,171.48Z"/><path class="cls-8" d="M70.44,116.62c13.23,5.49,13,13.32,13,13.32s-2.59,28.68-1.71,47.83c.37,8-42.55,8.62-36.15-12.74,7.55-25.19,4.72-45.58,8.25-48.66S67,115.2,70.44,116.62Z"/><path class="cls-13" d="M74.7,123.56c-.7,2.69-4.22,4.11-7.87,3.16s-6-3.88-5.36-6.56,4.22-4.11,7.87-3.17S75.39,120.87,74.7,123.56Z"/><path class="cls-10" d="M69.07,127.65a9.58,9.58,0,0,1-2.4-.31A8.88,8.88,0,0,1,62,124.5a5.09,5.09,0,0,1-1.17-4.5c.78-3,4.65-4.65,8.64-3.62a8.88,8.88,0,0,1,4.64,2.84,5.09,5.09,0,0,1,1.17,4.5h0C74.69,126.13,72.1,127.65,69.07,127.65Zm-2-10.32c-2.46,0-4.51,1.15-5,3A3.83,3.83,0,0,0,63,123.7a7.57,7.57,0,0,0,4,2.41c3.3.85,6.49-.36,7.09-2.71h0a3.81,3.81,0,0,0-.92-3.38,7.57,7.57,0,0,0-4-2.41A8.28,8.28,0,0,0,67.07,117.33Z"/><path class="cls-13" d="M65.13,116a33.84,33.84,0,0,1-.11,4.72c-.08,1.32,4.54,2.55,5.73,1.36s.72-2.44,1-6.92S65.13,116,65.13,116Z"/><path class="cls-14" d="M71.76,115.19s-1.14,4.16-6.74,5.75l.08-3.78Z"/><circle class="cls-13" cx="65.44" cy="107.17" r="10.19" transform="translate(-60.09 109.92) rotate(-59.84)"/><path class="cls-14" d="M67.78,107.54s-5.61,2.4-9.49,2.43-3-3.22-3-3.22l11.53-1.67Z"/><path class="cls-12" d="M57.13,108.17S62,106.1,66.31,107a4.59,4.59,0,0,1,2.59,1.54,1.54,1.54,0,0,0,.78.57c.76.17,2-3,3.48-3s2.46,1,1.25,2.91-.8,4.11-.24,4.42,6.47-4.21,1.25-14.55S57,94,54.9,96.13c0,0-2.17,1.89-3.94.21C51,96.34,49,111.16,57.13,108.17Z"/><path class="cls-13" d="M76,150.89v7.75A3.16,3.16,0,0,1,75,161L59,175.49l1.81,2.77,21-15.25a4.29,4.29,0,0,0,1.74-3L85,146.48Z"/><path class="cls-8" d="M82.29,126.06s4.83,7.26,6.63,26.39c0,0-8.25,2.66-12.94,1.15S82.29,126.06,82.29,126.06Z"/><path class="cls-3" d="M75.1,135.24s-1.89,10.13-2,14.88a3,3,0,0,0,2,2.93h0Z"/><path class="cls-8" d="M71,185.57l-3.52-.47L44.74,172a3.16,3.16,0,0,0-2.85.12L25.8,181.4l-2.13-.28v2.11h0a.85.85,0,0,0,.49.75L49.9,198.84a3.19,3.19,0,0,0,2.85-.11l17.53-10.12a1.16,1.16,0,0,0,.69-1h0Z"/><path class="cls-3" d="M53.9,177.28l-1.61-.93H34.54L25.8,181.4l-2.13-.28v2.11h0a.85.85,0,0,0,.49.75L49.9,198.84a2.68,2.68,0,0,0,1.47.28Z"/><path class="cls-8" d="M24.61,181.24l-.94-.12v2.11h0a.85.85,0,0,0,.49.75l.45.26Z"/><path class="cls-10" d="M50.16,199a3.25,3.25,0,0,0,2.42-.15v-3.6H50.16Z"/><path class="cls-10" d="M49.9,196.73,24.16,181.86c-.73-.42-.64-1.15.2-1.64l17.53-10.11a3.16,3.16,0,0,1,2.85-.12l25.74,14.86c.73.42.64,1.16-.2,1.64L52.75,196.61A3.2,3.2,0,0,1,49.9,196.73Z"/><path class="cls-1" d="M49.47,194.47,28.06,182.12c-.6-.35-.53-1,.17-1.37l9.4-5.28a2.63,2.63,0,0,1,2.36-.1l21.4,12.36c.61.35.53,1-.17,1.36l-9.39,5.29A2.63,2.63,0,0,1,49.47,194.47Z"/><path class="cls-13" d="M42.89,169.62l-.27,1.77a13.43,13.43,0,0,0,.12,4.56l.32,1.56a2.17,2.17,0,0,0,1.76,1.73h0a1.2,1.2,0,0,0,1.42-1.06l.43-3.79s1,1.27,1.44,1.27-.53-3.8-1.59-6S42.89,169.62,42.89,169.62Z"/><path class="cls-13" d="M51.62,141.39l-2.77,5.46A11,11,0,0,0,47.72,151l-1.2,18.7-3.63-.08-1.65-21a7.87,7.87,0,0,1,.09-1.94L43.22,136Z"/><path class="cls-2" d="M49,198.15l-2.16-2.81-22.7-13.15a3.18,3.18,0,0,1-1.31-2.52l0-18.58-1.31-1.71,1.23-.71h0a.81.81,0,0,1,.89,0l25.73,14.89a3.18,3.18,0,0,1,1.31,2.52l0,20.24a1.15,1.15,0,0,1-.48,1.08h0Z"/><path class="cls-3" d="M33.33,187.5l-1.61-.94-8.85-15.37v-10.1l-1.31-1.71,1.23-.71h0a.81.81,0,0,1,.89,0l25.73,14.89a2.67,2.67,0,0,1,1,1.13Z"/><path class="cls-8" d="M22.15,160.14l-.58-.76,1.23-.71h0a.81.81,0,0,1,.89,0l.45.26Z"/><path class="cls-9" d="M49.65,173.79A3.28,3.28,0,0,1,50.72,176l-2.51,1.45L47,175.31Z"/><path class="cls-8" d="M48.19,174.33,22.47,159.44c-.73-.43-1.32,0-1.32,1l0,20.24a3.16,3.16,0,0,0,1.32,2.52l25.72,14.9c.73.42,1.32,0,1.32-1l0-20.24A3.16,3.16,0,0,0,48.19,174.33Z"/><path class="cls-13" d="M60.84,178.26l-.41.85a5.77,5.77,0,0,1-2.15,2.39l-2.56,1.57a2.55,2.55,0,0,1-2.61.06l-.08,0a1.53,1.53,0,0,1-.22-2.36L55.48,178s-1.5,1.15-1.92.69,1.45-2,2.81-2A5.39,5.39,0,0,0,59,175.49Z"/><path class="cls-8" d="M54.07,116.33S44.28,127,40.33,136.75a20,20,0,0,0,11.54,8.4C60.07,147.52,54.07,116.33,54.07,116.33Z"/><path class="cls-3" d="M50,144.52l1.59-15.33-3.74,14.36A20.42,20.42,0,0,0,50,144.52Z"/><path class="cls-10" d="M61.4,114.18l-2.63-.72a6.41,6.41,0,0,0,3.09,2.48c1.83.5,2.12-1,2.12-1Z"/><path class="cls-10" d="M75.45,110A1.47,1.47,0,1,1,74,108.51,1.46,1.46,0,0,1,75.45,110Z"/><path class="cls-12" d="M294.14,115.57l-4.41-9,9-4.42,4.41,9Zm-1.73-8.06,2.65,5.38,5.38-2.64-2.65-5.39Z"/><path class="cls-1" d="M104.86,286.55c-9.8-5.66-25.69-5.66-35.49,0s-9.8,14.83,0,20.49,25.69,5.66,35.49,0S114.66,292.21,104.86,286.55Zm-9.59,15c-4.5,2.6-11.81,2.6-16.31,0s-4.51-6.82,0-9.42,11.81-2.6,16.31,0S99.78,298.9,95.27,301.51Z"/><path class="cls-15" d="M65.67,283.2l9,.14A9.51,9.51,0,0,1,77.45,281c4.92-2.84,12.66-3.06,18-.66l5.32-5,8.19.12c-.4-.26-.82-.52-1.26-.77-11.38-6.58-29.83-6.58-41.21,0a21.84,21.84,0,0,0-5.13,4Z"/><polygon class="cls-11" points="108.98 262.43 108.98 275.42 100.79 275.3 100.79 262.3 108.98 262.43"/><polygon class="cls-15" points="95.47 267.3 95.47 280.3 100.79 275.3 100.79 262.3 95.47 267.3"/><path class="cls-15" d="M74.62,270.34v13l11.78-9.6,9.07,6.56v-13l-8.36-4.05s-11.5,3.52-12.1,3.67S74.62,270.34,74.62,270.34Z"/><polygon class="cls-15" points="65.67 270.2 65.67 283.2 74.62 283.34 74.62 270.34 65.67 270.2"/><polygon class="cls-11" points="61.38 265.64 61.38 278.63 65.67 283.2 65.67 270.2 61.38 265.64"/><path class="cls-12" d="M65.67,270.2l9,.14A9.51,9.51,0,0,1,77.45,268c4.92-2.84,12.66-3.06,18-.66l5.32-5,8.19.13q-.6-.4-1.26-.78c-11.38-6.58-29.83-6.58-41.21,0a21.33,21.33,0,0,0-5.13,4Z"/><path class="cls-8" d="M98.17,268.9v12l7.75-1.86s-.46-7-.62-7.18S98.17,268.9,98.17,268.9Z"/><path class="cls-2" d="M92.3,280.85v13l.84.89,5.46-3.15s-.84-9.92-.94-10.12A51.87,51.87,0,0,0,92.3,280.85Z"/><path class="cls-3" d="M102.85,277.49l-4.68,4.41c3.9,3.09,3.44,7.44-1.39,10.22a16.57,16.57,0,0,1-4.48,1.73L97.15,299l-4.29,4a39,39,0,0,0,14.86-4.6c9.79-5.65,11.15-14.31,4.11-20.81Z"/><polygon class="cls-3" points="92.86 290.04 92.86 303.04 103.48 298.94 116.25 286.75 116.21 272.95 102.69 283.66 92.86 290.04"/><path class="cls-1" d="M102.85,264.49l-4.68,4.41c3.9,3.09,3.44,7.44-1.39,10.23a16.89,16.89,0,0,1-4.48,1.72L97.15,286l-4.29,4a39,39,0,0,0,14.86-4.6c9.79-5.65,11.15-14.31,4.11-20.81Z"/><path class="cls-3" d="M92.82,298.94l-4.27-4.55a20.32,20.32,0,0,1-11.1-2.27c-3.14-1.81-4.43-4.28-3.88-6.63l-10.16-.16-3.91-4.16c-3.42,5.86-1.09,12.6,7,17.27,5.94,3.44,13.82,5.07,21.61,4.92Z"/><polygon class="cls-3" points="88.12 290.36 88.12 303.36 57.98 286.65 57.98 273.64 62.38 275.42 88.12 290.36"/><polygon class="cls-2" points="92.82 285.94 92.82 298.94 88.12 303.36 88.12 290.36 92.82 285.94"/><path class="cls-8" d="M92.82,285.94l-4.27-4.55a20.41,20.41,0,0,1-11.1-2.26c-3.14-1.81-4.43-4.29-3.88-6.64l-10.16-.16-3.91-4.16c-3.42,5.86-1.09,12.6,7,17.27,5.94,3.44,13.82,5.07,21.61,4.92Z"/><path class="cls-8" d="M25.23,76.3a6.5,6.5,0,1,1,6.5-6.5A6.51,6.51,0,0,1,25.23,76.3Zm0-11a4.5,4.5,0,1,0,4.5,4.5A4.5,4.5,0,0,0,25.23,65.3Z"/><path class="cls-1" d="M9.44,279.33a4.72,4.72,0,1,1-4.72-4.72A4.72,4.72,0,0,1,9.44,279.33Z"/><path class="cls-1" d="M250.64,9.35A5.62,5.62,0,1,1,245,3.73,5.61,5.61,0,0,1,250.64,9.35Z"/><path class="cls-11" d="M220.24,67.51,193.5,52.07a1.39,1.39,0,0,0-1.38-.11v0l-2.59,1.5,1.82.67V73.58a5.13,5.13,0,0,0,2.15,4.11l25.56,14.76v2.28l2.62-1.51h0a1.92,1.92,0,0,0,.72-1.72V71.62A5.16,5.16,0,0,0,220.24,67.51Z"/><path class="cls-12" d="M217.6,94.65,190.86,79.21a5.13,5.13,0,0,1-2.15-4.11V55.22c0-1.58,1-2.31,2.15-1.62L217.6,69a5.16,5.16,0,0,1,2.15,4.11V93C219.75,94.61,218.79,95.34,217.6,94.65Z"/><path class="cls-10" d="M199.85,72.36c0,1.15-.8,1.62-1.8,1a4,4,0,0,1-1.8-3.12c0-1.15.8-1.62,1.8-1A4,4,0,0,1,199.85,72.36Z"/><path class="cls-10" d="M205.32,75.52c0,1.15-.81,1.61-1.81,1a4,4,0,0,1-1.8-3.13c0-1.15.81-1.61,1.8-1A4,4,0,0,1,205.32,75.52Z"/><path class="cls-10" d="M210.78,78.67c0,1.15-.8,1.62-1.8,1a4,4,0,0,1-1.8-3.13c0-1.15.8-1.62,1.8-1A4,4,0,0,1,210.78,78.67Z"/><path class="cls-8" d="M90.23,37.14,64,22a1.33,1.33,0,0,0-1.36-.11v0L60.1,23.34l1.79.65V43.1a5,5,0,0,0,2.11,4L89.07,61.6v2.25l2.57-1.49h0a1.88,1.88,0,0,0,.71-1.68V41.17A5.07,5.07,0,0,0,90.23,37.14Z"/><path class="cls-1" d="M87.64,63.77,61.41,48.62a5,5,0,0,1-2.11-4V25.08c0-1.55.94-2.26,2.11-1.59L87.64,38.63a5.09,5.09,0,0,1,2.11,4v19.5C89.75,63.73,88.8,64.44,87.64,63.77Z"/><path class="cls-10" d="M70.23,41.9c0,1.13-.79,1.59-1.77,1a3.89,3.89,0,0,1-1.77-3.06c0-1.13.79-1.59,1.77-1A3.89,3.89,0,0,1,70.23,41.9Z"/><path class="cls-10" d="M75.59,45c0,1.12-.79,1.58-1.77,1A3.92,3.92,0,0,1,72.05,43c0-1.13.79-1.58,1.77-1A3.9,3.9,0,0,1,75.59,45Z"/><path class="cls-10" d="M81,48.09c0,1.13-.79,1.59-1.77,1a3.89,3.89,0,0,1-1.77-3.06c0-1.13.79-1.59,1.77-1A3.89,3.89,0,0,1,81,48.09Z"/></g></g></svg>