<svg xmlns="http://www.w3.org/2000/svg" xmlns:xlink="http://www.w3.org/1999/xlink" viewBox="0 0 116.08 92.31"><defs><style>.cls-1{fill:#88b5ea;}.cls-2{fill:none;}.cls-3,.cls-91{opacity:0.1;}.cls-4{clip-path:url(#clip-path);}.cls-5{isolation:isolate;}.cls-6{clip-path:url(#clip-path-2);}.cls-7{fill:#2d509e;}.cls-8{fill:#2e53a3;}.cls-9{fill:#3055a8;}.cls-10{fill:#3158ad;}.cls-11{fill:#325ab3;}.cls-12{fill:#345db8;}.cls-13{fill:#355fbd;}.cls-14{fill:#3762c2;}.cls-15{fill:#3865c7;}.cls-16{fill:#3a67cc;}.cls-17{fill:#96b2db;}.cls-18{clip-path:url(#clip-path-3);}.cls-19{fill:#2b4d99;}.cls-20{fill:#2a4b94;}.cls-21{fill:#28488f;}.cls-22{fill:#27468a;}.cls-23{fill:#254385;}.cls-24{clip-path:url(#clip-path-4);}.cls-25{fill:#b760cc;}.cls-26{fill:#b35ec7;}.cls-27{fill:#ae5bc2;}.cls-28{fill:#a959bd;}.cls-29{fill:#a556b8;}.cls-30{fill:#a054b3;}.cls-31{fill:#9c52ad;}.cls-32{fill:#974fa8;}.cls-33{fill:#934da3;}.cls-34{fill:#8e4a9e;}.cls-35{clip-path:url(#clip-path-5);}.cls-36{fill:#773e85;}.cls-37{fill:#7c418a;}.cls-38{fill:#80438f;}.cls-39{fill:#854694;}.cls-40{fill:#894899;}.cls-41{clip-path:url(#clip-path-6);}.cls-42{clip-path:url(#clip-path-7);}.cls-43{fill:#752289;}.cls-44{fill:#722285;}.cls-45{fill:#6f2182;}.cls-46{fill:#6c207f;}.cls-47{fill:#691f7b;}.cls-48{fill:#661e78;}.cls-49{fill:#631d74;}.cls-50{fill:#601c71;}.cls-51{fill:#5d1c6d;}.cls-52{fill:#5b1b6a;}.cls-53{clip-path:url(#clip-path-8);}.cls-54{fill:#4c1659;}.cls-55{fill:#4f175c;}.cls-56{fill:#521860;}.cls-57{fill:#551963;}.cls-58{fill:#581a67;}.cls-59{clip-path:url(#clip-path-9);}.cls-60{clip-path:url(#clip-path-10);}.cls-61{clip-path:url(#clip-path-11);}.cls-62{fill:#beb612;}.cls-63{fill:#b9b211;}.cls-64{fill:#b4ad11;}.cls-65{fill:#afa910;}.cls-66{fill:#aba410;}.cls-67{fill:#a6a00f;}.cls-68{fill:#a19b0f;}.cls-69{fill:#9c960f;}.cls-70{fill:#98920e;}.cls-71{fill:#938d0e;}.cls-72{clip-path:url(#clip-path-12);}.cls-73{fill:#7b770b;}.cls-74{fill:#807b0c;}.cls-75{fill:#85800c;}.cls-76{fill:#89840d;}.cls-77{fill:#8e890d;}.cls-78{fill:#4881ff;}.cls-79{fill:#e578ff;}.cls-80{fill:#922bab;}.cls-81{fill:#ffb420;}.cls-82{fill:#d7e9ff;}.cls-83{fill:#7e2593;}.cls-84{fill:#6d2080;}.cls-85{fill:#4e175b;}.cls-86{fill:#40ebf4;opacity:0.6;}.cls-87{fill:#39e0ea;}.cls-102,.cls-103,.cls-87,.cls-93{opacity:0.5;}.cls-88{fill:#33d4df;opacity:0.4;}.cls-89{fill:#2cc9d5;opacity:0.3;}.cls-90{fill:#25bdca;opacity:0.2;}.cls-91{fill:#1fb2c0;}.cls-92,.cls-93{fill:#18a6b5;}.cls-108,.cls-109,.cls-92{opacity:0;}.cls-94{fill:#09b4c6;}.cls-95{fill:#0be1f7;}.cls-96{opacity:0.7;}.cls-97{fill:#55fbff;}.cls-98,.cls-99{opacity:0.83;}.cls-99{fill:#71fcff;}.cls-100,.cls-101{opacity:0.67;}.cls-101{fill:#8efcff;}.cls-103{fill:#aafdff;}.cls-104,.cls-105{opacity:0.33;}.cls-105{fill:#c6feff;}.cls-106,.cls-107{opacity:0.17;}.cls-107{fill:#e3feff;}.cls-109{fill:#fff;}.cls-110{fill:#ffaa83;}.cls-111{fill:#615a8e;}.cls-112{fill:#5bb0ff;}.cls-113{fill:#3d93ff;}.cls-114{fill:#0e007a;}.cls-115{fill:#160f96;}.cls-116{fill:#f29c79;}.cls-117{fill:#e84cbe;}.cls-118{fill:url(#linear-gradient);}.cls-119{fill:url(#linear-gradient-2);}.cls-120{fill:#f79f7c;}.cls-121{fill:#994e17;}.cls-122{fill:#f98cda;}</style><clipPath id="clip-path"><path class="cls-1" d="M24.72,90l-1-.57-.88-.51-.63-.36A1.75,1.75,0,0,1,21.45,87L24,88.39A1.79,1.79,0,0,0,24.72,90Z"/></clipPath><clipPath id="clip-path-2"><path class="cls-2" d="M31.41,35.18a1,1,0,0,0,1-.1l2.53,1.44a1,1,0,0,1-1,.1Z"/></clipPath><clipPath id="clip-path-3"><path class="cls-2" d="M33.71,32.72a1,1,0,0,0-.4-.87l2.52,1.44a1,1,0,0,1,.41.87,3,3,0,0,1-1.33,2.36l-2.53-1.44A3,3,0,0,0,33.71,32.72Z"/></clipPath><clipPath id="clip-path-4"><path class="cls-2" d="M33.31,31.85l2.52,1.44a1,1,0,0,0-1,.1L32.34,32A1,1,0,0,1,33.31,31.85Z"/></clipPath><clipPath id="clip-path-5"><path class="cls-2" d="M33.94,36.62l-2-1.15-.38-.22-.13-.07a1,1,0,0,1-.4-.87A3,3,0,0,1,32.34,32l2.53,1.44a3,3,0,0,0-1.34,2.36A1,1,0,0,0,33.94,36.62Z"/></clipPath><clipPath id="clip-path-6"><path class="cls-2" d="M30.25,34.76a1,1,0,0,0-.4-.87l2.52,1.44a1,1,0,0,1,.41.87,3,3,0,0,1-1.34,2.35l-2.52-1.43A3,3,0,0,0,30.25,34.76Z"/></clipPath><clipPath id="clip-path-7"><path class="cls-2" d="M29.85,33.89l2.52,1.44a1,1,0,0,0-1,.1L28.88,34A1,1,0,0,1,29.85,33.89Z"/></clipPath><clipPath id="clip-path-8"><path class="cls-2" d="M30.48,38.66,28,37.22a.94.94,0,0,1-.4-.86A3,3,0,0,1,28.88,34l2.53,1.44a3,3,0,0,0-1.34,2.36A1,1,0,0,0,30.48,38.66Z"/></clipPath><clipPath id="clip-path-9"><path class="cls-2" d="M24.49,39.26a1,1,0,0,0,1-.1L28,40.59a1,1,0,0,1-1,.11Z"/></clipPath><clipPath id="clip-path-10"><path class="cls-2" d="M26.79,36.8a1,1,0,0,0-.41-.87l2.53,1.44a1,1,0,0,1,.41.87A3,3,0,0,1,28,40.59l-2.52-1.43A3,3,0,0,0,26.79,36.8Z"/></clipPath><clipPath id="clip-path-11"><path class="cls-2" d="M26.38,35.93l2.53,1.44a1,1,0,0,0-1,.1L25.42,36A1,1,0,0,1,26.38,35.93Z"/></clipPath><clipPath id="clip-path-12"><path class="cls-2" d="M27,40.7l-2.53-1.44a.93.93,0,0,1-.4-.87A3,3,0,0,1,25.42,36L28,37.47a3,3,0,0,0-1.34,2.36A1,1,0,0,0,27,40.7Z"/></clipPath><linearGradient id="linear-gradient" x1="97.19" y1="25.34" x2="96.16" y2="48.36" gradientUnits="userSpaceOnUse"><stop offset="0" stop-color="#fa5fc8"/><stop offset="1" stop-color="#b161cb"/></linearGradient><linearGradient id="linear-gradient-2" x1="104.16" y1="21.75" x2="102.95" y2="48.59" xlink:href="#linear-gradient"/></defs><title>Asset 2</title><g id="Layer_2" data-name="Layer 2"><g id="Layer_1-2" data-name="Layer 1"><path class="cls-3" d="M107.38,77.59a9,9,0,0,0-3-2.73,20.17,20.17,0,0,0-11.7-2.13,17.88,17.88,0,0,0-7.1,2.13c-2.32,1.35-3.59,3.08-3.82,4.84-.29,2.16,1,4.39,3.88,6,4.37,2.52,11,2.93,16.06,1.23a14.53,14.53,0,0,0,2.74-1.23C108.19,83.55,109.18,80.33,107.38,77.59Z"/><g class="cls-3"><polygon points="0 76.42 20.12 88.95 80.71 53.97 59.87 41.86 0 76.42"/></g><path class="cls-1" d="M24.72,90l-1-.57-.88-.51-.63-.36A1.75,1.75,0,0,1,21.45,87L24,88.39A1.79,1.79,0,0,0,24.72,90Z"/><g class="cls-4"><g class="cls-5"><path class="cls-1" d="M24.72,90,22.2,88.57A1.75,1.75,0,0,1,21.45,87L24,88.39A1.79,1.79,0,0,0,24.72,90Z"/></g></g><g class="cls-5"><g class="cls-6"><g class="cls-5"><polygon class="cls-7" points="33.94 36.62 31.41 35.18 31.42 35.18 33.94 36.62 33.94 36.62 33.94 36.62"/><path class="cls-8" d="M33.94,36.62l-2.52-1.44.07,0L34,36.65l-.07,0Z"/><path class="cls-9" d="M34,36.65l-2.52-1.43.07,0,2.53,1.44-.08,0Z"/><path class="cls-10" d="M34.09,36.68l-2.53-1.44.08,0,2.52,1.44-.07,0Z"/><path class="cls-11" d="M34.16,36.7l-2.52-1.44h.08l2.53,1.44Z"/><path class="cls-12" d="M34.25,36.71l-2.53-1.44h.09l2.52,1.44Z"/><path class="cls-13" d="M34.33,36.71l-2.52-1.44h.1l2.53,1.43-.11,0Z"/><path class="cls-14" d="M34.44,36.69l-2.53-1.43.12,0,2.53,1.44-.12,0Z"/><path class="cls-15" d="M34.56,36.67,32,35.23l.16-.06,2.53,1.44-.16.06Z"/><path class="cls-16" d="M34.72,36.61l-2.53-1.44.19-.09,2.53,1.44-.19.09Z"/></g></g></g><polygon class="cls-17" points="23.47 45.96 20.95 44.52 83.98 7.38 86.51 8.81 23.47 45.96"/><g class="cls-5"><g class="cls-18"><g class="cls-5"><path class="cls-16" d="M34.91,36.52l-2.53-1.44a2.54,2.54,0,0,0,.45-.36l2.53,1.44a3,3,0,0,1-.45.36Z"/><path class="cls-15" d="M35.36,36.16l-2.53-1.44.15-.16L35.5,36a1.07,1.07,0,0,1-.14.16Z"/><path class="cls-14" d="M35.5,36,33,34.56l.1-.13,2.53,1.44L35.5,36Z"/><path class="cls-13" d="M35.61,35.87l-2.53-1.44.09-.13,2.53,1.44-.09.13Z"/><path class="cls-12" d="M35.7,35.74,33.17,34.3a.44.44,0,0,0,.08-.11l2.53,1.43-.08.12Z"/><path class="cls-11" d="M35.78,35.62l-2.53-1.43.07-.12,2.53,1.44-.07.11Z"/><path class="cls-10" d="M35.85,35.51l-2.53-1.44.06-.11,2.53,1.43-.06.12Z"/><path class="cls-9" d="M35.91,35.39,33.38,34l.06-.12L36,35.28l-.06.11Z"/><path class="cls-8" d="M36,35.28l-2.53-1.44a.61.61,0,0,0,.05-.12L36,35.16l-.05.12Z"/><path class="cls-7" d="M36,35.16l-2.53-1.44a.61.61,0,0,0,0-.12L36.07,35l0,.12Z"/><path class="cls-19" d="M36.07,35,33.54,33.6s0-.09.05-.13l2.52,1.44s0,.08,0,.13Z"/><path class="cls-20" d="M36.11,34.91l-2.52-1.44s0-.09,0-.14l2.52,1.44a.74.74,0,0,1,0,.14Z"/><path class="cls-21" d="M36.15,34.77l-2.52-1.44s0-.1,0-.15l2.52,1.43a.75.75,0,0,1,0,.16Z"/><path class="cls-22" d="M36.19,34.61l-2.52-1.43,0-.19,2.52,1.44a1.13,1.13,0,0,1,0,.18Z"/><path class="cls-23" d="M36.22,34.43,33.7,33a2.44,2.44,0,0,0,0-.27,1,1,0,0,0-.4-.87l2.52,1.44a1,1,0,0,1,.41.87,2.45,2.45,0,0,1,0,.27Z"/></g></g></g><g class="cls-5"><g class="cls-24"><g class="cls-5"><path class="cls-25" d="M34.87,33.39,32.34,32l.19-.09,2.53,1.44a.82.82,0,0,0-.19.09Z"/><path class="cls-26" d="M35.06,33.3l-2.53-1.44.16-.06,2.53,1.44a.52.52,0,0,0-.16.06Z"/><path class="cls-27" d="M35.22,33.24,32.69,31.8l.12,0,2.52,1.44-.11,0Z"/><path class="cls-28" d="M35.33,33.21l-2.52-1.44h.1l2.53,1.44Z"/><path class="cls-29" d="M35.44,33.2l-2.53-1.44H33l2.53,1.44Z"/><path class="cls-30" d="M35.53,33.2,33,31.76h.08l2.53,1.44Z"/><path class="cls-31" d="M35.61,33.21l-2.53-1.44.08,0,2.52,1.44-.07,0Z"/><path class="cls-32" d="M35.68,33.23l-2.52-1.44.07,0,2.52,1.44-.07,0Z"/><path class="cls-33" d="M35.75,33.25l-2.52-1.44.07,0,2.52,1.43-.07,0Z"/><polygon class="cls-34" points="35.82 33.28 33.3 31.85 33.31 31.85 35.83 33.29 35.82 33.28 35.82 33.28"/></g></g></g><g class="cls-5"><g class="cls-35"><g class="cls-5"><path class="cls-36" d="M33.94,36.62l-2.53-1.44a1,1,0,0,1-.4-.87,2.35,2.35,0,0,1,0-.26l2.53,1.44a2.46,2.46,0,0,0,0,.26,1,1,0,0,0,.41.87Z"/><path class="cls-37" d="M33.55,35.49,31,34.05l0-.19,2.53,1.44a1.25,1.25,0,0,0,0,.19Z"/><path class="cls-38" d="M33.58,35.3l-2.53-1.44s0-.1,0-.16l2.53,1.44a.94.94,0,0,0,0,.16Z"/><path class="cls-39" d="M33.62,35.14,31.09,33.7s0-.09,0-.14L33.66,35a.74.74,0,0,0,0,.14Z"/><path class="cls-40" d="M33.66,35l-2.53-1.44a.61.61,0,0,1,.05-.12l2.52,1.43c0,.05,0,.09,0,.13Z"/><path class="cls-34" d="M33.7,34.87l-2.52-1.43a.69.69,0,0,1,.05-.13l2.52,1.44,0,.12Z"/><path class="cls-33" d="M33.75,34.75l-2.52-1.44a.61.61,0,0,1,.05-.12l2.52,1.44a.61.61,0,0,1,0,.12Z"/><path class="cls-32" d="M33.8,34.63l-2.52-1.44.06-.11,2.52,1.44-.06.11Z"/><path class="cls-31" d="M33.86,34.52l-2.52-1.44L31.4,33l2.52,1.44-.06.12Z"/><path class="cls-30" d="M33.92,34.4,31.4,33l.07-.11L34,34.28a.75.75,0,0,1-.07.12Z"/><path class="cls-29" d="M34,34.28l-2.52-1.43.07-.12,2.53,1.44a1,1,0,0,0-.08.11Z"/><path class="cls-28" d="M34.07,34.17l-2.53-1.44.1-.12L34.16,34l-.09.13Z"/><path class="cls-27" d="M34.16,34l-2.52-1.43.1-.14,2.53,1.44-.11.13Z"/><path class="cls-26" d="M34.27,33.91l-2.53-1.44.15-.16,2.53,1.44-.15.16Z"/><path class="cls-25" d="M34.42,33.75l-2.53-1.44a2.54,2.54,0,0,1,.45-.36l2.53,1.44a2.16,2.16,0,0,0-.45.36Z"/></g></g></g><g class="cls-5"><g class="cls-41"><g class="cls-5"><path class="cls-16" d="M31.44,38.55l-2.52-1.43a2.54,2.54,0,0,0,.45-.36l2.52,1.44a2.1,2.1,0,0,1-.45.35Z"/><path class="cls-15" d="M31.89,38.2l-2.52-1.44a1.07,1.07,0,0,0,.14-.16L32,38l-.15.16Z"/><path class="cls-14" d="M32,38,29.51,36.6l.11-.13,2.53,1.44L32,38Z"/><path class="cls-13" d="M32.15,37.91l-2.53-1.44.09-.13,2.53,1.44-.09.13Z"/><path class="cls-12" d="M32.24,37.78l-2.53-1.44a.44.44,0,0,0,.08-.11l2.53,1.43-.08.12Z"/><path class="cls-11" d="M32.32,37.66l-2.53-1.43.07-.12,2.53,1.44-.07.11Z"/><path class="cls-10" d="M32.39,37.55l-2.53-1.44.06-.12,2.53,1.44-.06.12Z"/><path class="cls-9" d="M32.45,37.43,29.92,36l.06-.11,2.53,1.44-.06.11Z"/><path class="cls-8" d="M32.51,37.32,30,35.88a.61.61,0,0,0,.05-.12l2.53,1.44a.61.61,0,0,0-.05.12Z"/><path class="cls-7" d="M32.56,37.2,30,35.76a.61.61,0,0,0,0-.12l2.53,1.44,0,.12Z"/><path class="cls-19" d="M32.61,37.08l-2.53-1.44s0-.09.05-.13L32.65,37a.93.93,0,0,1,0,.13Z"/><path class="cls-20" d="M32.65,37l-2.52-1.44s0-.09,0-.14l2.52,1.44a.74.74,0,0,1,0,.14Z"/><path class="cls-21" d="M32.69,36.81l-2.52-1.44s0-.1,0-.15l2.52,1.43a.75.75,0,0,1,0,.16Z"/><path class="cls-22" d="M32.73,36.65l-2.52-1.43,0-.19,2.52,1.43,0,.19Z"/><path class="cls-23" d="M32.76,36.46,30.24,35a2.44,2.44,0,0,0,0-.27,1,1,0,0,0-.4-.87l2.52,1.44a1,1,0,0,1,.41.87,2.28,2.28,0,0,1,0,.26Z"/></g></g></g><g class="cls-5"><g class="cls-42"><g class="cls-5"><path class="cls-43" d="M31.41,35.43,28.88,34l.19-.09,2.53,1.43-.19.1Z"/><path class="cls-44" d="M31.6,35.33,29.07,33.9a1,1,0,0,1,.16-.06l2.53,1.44-.16,0Z"/><path class="cls-45" d="M31.76,35.28l-2.53-1.44.12,0,2.52,1.44-.11,0Z"/><path class="cls-46" d="M31.87,35.25l-2.52-1.44h.1L32,35.24Z"/><path class="cls-47" d="M32,35.24,29.45,33.8h.09l2.53,1.44Z"/><path class="cls-48" d="M32.07,35.24,29.54,33.8h.08l2.53,1.44Z"/><path class="cls-49" d="M32.15,35.25l-2.53-1.44.08,0,2.52,1.44-.07,0Z"/><path class="cls-50" d="M32.22,35.27,29.7,33.83l.07,0,2.52,1.44-.07,0Z"/><path class="cls-51" d="M32.29,35.29l-2.52-1.44.07,0,2.52,1.43-.07,0Z"/><polygon class="cls-52" points="32.37 35.32 29.84 33.89 29.84 33.89 32.37 35.33 32.37 35.32 32.37 35.32"/></g></g></g><g class="cls-5"><g class="cls-53"><g class="cls-5"><path class="cls-54" d="M30.48,38.66,28,37.22a.94.94,0,0,1-.4-.86,1.22,1.22,0,0,1,0-.27l2.53,1.44a2.46,2.46,0,0,0,0,.26,1,1,0,0,0,.41.87Z"/><path class="cls-55" d="M30.09,37.53l-2.53-1.44,0-.19,2.53,1.44a1.08,1.08,0,0,0,0,.19Z"/><path class="cls-56" d="M30.12,37.34,27.59,35.9s0-.1,0-.16l2.52,1.44,0,.16Z"/><path class="cls-57" d="M30.15,37.18l-2.52-1.44,0-.13L30.2,37c0,.05,0,.1-.05.14Z"/><path class="cls-58" d="M30.2,37l-2.53-1.43a.78.78,0,0,1,0-.14l2.52,1.44a.93.93,0,0,0,0,.13Z"/><path class="cls-52" d="M30.24,36.91l-2.52-1.44,0-.12,2.53,1.44-.05.12Z"/><path class="cls-51" d="M30.29,36.79l-2.53-1.44.06-.12,2.52,1.44-.05.12Z"/><path class="cls-50" d="M30.34,36.67l-2.52-1.44a.39.39,0,0,1,.06-.11l2.52,1.44-.06.11Z"/><path class="cls-49" d="M30.4,36.56l-2.52-1.44a.67.67,0,0,1,.06-.12l2.52,1.44-.06.12Z"/><path class="cls-48" d="M30.46,36.44,27.94,35a.41.41,0,0,1,.07-.11l2.52,1.43a.75.75,0,0,1-.07.12Z"/><path class="cls-47" d="M30.53,36.32,28,34.89l.07-.12,2.53,1.44-.08.11Z"/><path class="cls-46" d="M30.61,36.21l-2.53-1.44a1.13,1.13,0,0,1,.1-.13l2.52,1.44-.09.13Z"/><path class="cls-45" d="M30.7,36.08l-2.52-1.44.1-.13L30.81,36l-.11.13Z"/><path class="cls-44" d="M30.81,36l-2.53-1.44.15-.16L31,35.79l-.15.16Z"/><path class="cls-43" d="M31,35.79l-2.53-1.44a2.54,2.54,0,0,1,.45-.36l2.53,1.44a1.87,1.87,0,0,0-.45.36Z"/></g></g></g><g class="cls-5"><g class="cls-59"><g class="cls-5"><polygon class="cls-7" points="27.02 40.7 24.49 39.26 24.5 39.26 27.02 40.7 27.02 40.7 27.02 40.7"/><path class="cls-8" d="M27,40.7,24.5,39.26l.07,0,2.52,1.43-.07,0Z"/><path class="cls-9" d="M27.09,40.73,24.57,39.3l.07,0,2.53,1.44-.08,0Z"/><path class="cls-10" d="M27.17,40.76l-2.53-1.44.07,0,2.53,1.43Z"/><path class="cls-11" d="M27.24,40.77l-2.53-1.43h.09l2.52,1.43Z"/><path class="cls-12" d="M27.32,40.78,24.8,39.35h.09l2.52,1.43Z"/><path class="cls-13" d="M27.41,40.78l-2.52-1.43.1,0,2.53,1.44Z"/><path class="cls-14" d="M27.52,40.77,25,39.33l.12,0,2.53,1.44-.12,0Z"/><path class="cls-15" d="M27.64,40.75l-2.53-1.44.16-.06,2.52,1.44-.15.06Z"/><path class="cls-16" d="M27.79,40.69l-2.52-1.44.19-.09L28,40.59l-.19.1Z"/></g></g></g><g class="cls-5"><g class="cls-60"><g class="cls-5"><path class="cls-16" d="M28,40.59l-2.52-1.43a2.54,2.54,0,0,0,.45-.36l2.52,1.44a2.1,2.1,0,0,1-.45.35Z"/><path class="cls-15" d="M28.43,40.24,25.91,38.8l.15-.16,2.52,1.44c0,.05-.09.11-.15.16Z"/><path class="cls-14" d="M28.58,40.08l-2.52-1.44.1-.13,2.53,1.43-.11.14Z"/><path class="cls-13" d="M28.69,39.94l-2.53-1.43a.6.6,0,0,0,.09-.13l2.53,1.44-.09.12Z"/><path class="cls-12" d="M28.78,39.82l-2.53-1.44a.5.5,0,0,0,.08-.12l2.52,1.44a.75.75,0,0,1-.07.12Z"/><path class="cls-11" d="M28.85,39.7l-2.52-1.44a.41.41,0,0,0,.07-.11l2.53,1.44a1,1,0,0,1-.08.11Z"/><path class="cls-10" d="M28.93,39.59,26.4,38.15l.06-.12L29,39.47l-.06.12Z"/><path class="cls-9" d="M29,39.47,26.46,38l.06-.11,2.53,1.44-.06.11Z"/><path class="cls-8" d="M29.05,39.36l-2.53-1.44a.61.61,0,0,0,.05-.12l2.53,1.44a.61.61,0,0,0-.05.12Z"/><path class="cls-7" d="M29.1,39.24,26.57,37.8a.61.61,0,0,0,.05-.12l2.53,1.44,0,.12Z"/><path class="cls-19" d="M29.15,39.12l-2.53-1.44s0-.09.05-.13L29.19,39s0,.08,0,.13Z"/><path class="cls-20" d="M29.19,39l-2.52-1.44a.74.74,0,0,1,0-.14l2.52,1.44a1,1,0,0,1,0,.14Z"/><path class="cls-21" d="M29.23,38.85l-2.52-1.44,0-.16,2.53,1.44a.94.94,0,0,1,0,.16Z"/><path class="cls-22" d="M29.27,38.69l-2.53-1.44a.57.57,0,0,0,0-.18L29.3,38.5l0,.19Z"/><path class="cls-23" d="M29.3,38.5l-2.53-1.43a1.23,1.23,0,0,0,0-.27,1,1,0,0,0-.41-.87l2.53,1.44a1,1,0,0,1,.41.87,2.46,2.46,0,0,1,0,.26Z"/></g></g></g><g class="cls-5"><g class="cls-61"><g class="cls-5"><path class="cls-62" d="M28,37.47,25.42,36l.19-.1,2.53,1.44-.19.1Z"/><path class="cls-63" d="M28.14,37.37l-2.53-1.44.16,0,2.52,1.44-.15,0Z"/><path class="cls-64" d="M28.29,37.32l-2.52-1.44.12,0,2.53,1.44-.13,0Z"/><path class="cls-65" d="M28.42,37.29l-2.53-1.44H26l2.53,1.44Z"/><path class="cls-66" d="M28.52,37.28,26,35.84h.09l2.52,1.44Z"/><path class="cls-67" d="M28.6,37.28l-2.52-1.44h.08l2.53,1.44Z"/><path class="cls-68" d="M28.69,37.29l-2.53-1.44.08,0,2.52,1.43Z"/><path class="cls-69" d="M28.76,37.3l-2.52-1.43.07,0,2.53,1.44-.08,0Z"/><path class="cls-70" d="M28.84,37.33l-2.53-1.44.07,0,2.52,1.43-.06,0Z"/><polygon class="cls-71" points="28.9 37.36 26.38 35.92 26.38 35.93 28.91 37.37 28.9 37.36 28.9 37.36"/></g></g></g><g class="cls-5"><g class="cls-72"><g class="cls-5"><path class="cls-73" d="M27,40.7l-2.53-1.44a.93.93,0,0,1-.4-.87,1.15,1.15,0,0,1,0-.26l2.53,1.44a2.28,2.28,0,0,0,0,.26,1,1,0,0,0,.41.87Z"/><path class="cls-74" d="M26.63,39.57,24.1,38.13l0-.19,2.53,1.44a.58.58,0,0,0,0,.19Z"/><path class="cls-75" d="M26.66,39.38l-2.53-1.44a.94.94,0,0,1,0-.16l2.53,1.44a.94.94,0,0,0,0,.16Z"/><path class="cls-76" d="M26.7,39.22l-2.53-1.44s0-.09,0-.14l2.52,1.44,0,.14Z"/><path class="cls-77" d="M26.73,39.08l-2.52-1.44s0-.08,0-.13L26.78,39a.5.5,0,0,1-.05.13Z"/><path class="cls-71" d="M26.78,39l-2.53-1.44a.61.61,0,0,0,.05-.12l2.53,1.44,0,.12Z"/><path class="cls-70" d="M26.83,38.83,24.3,37.39a.61.61,0,0,0,.05-.12l2.53,1.44-.05.12Z"/><path class="cls-69" d="M26.88,38.71l-2.53-1.44a.6.6,0,0,0,.06-.11l2.53,1.43-.06.12Z"/><path class="cls-68" d="M26.94,38.59l-2.53-1.43s0-.08.07-.12L27,38.48l-.06.11Z"/><path class="cls-67" d="M27,38.48,24.48,37a.75.75,0,0,1,.07-.12l2.52,1.44-.07.12Z"/><path class="cls-66" d="M27.07,38.36l-2.52-1.44.08-.11,2.52,1.43-.08.12Z"/><path class="cls-65" d="M27.15,38.24l-2.52-1.43a.57.57,0,0,1,.08-.13l2.53,1.44-.09.12Z"/><path class="cls-64" d="M27.24,38.12l-2.53-1.44.11-.13L27.35,38l-.11.13Z"/><path class="cls-63" d="M27.35,38l-2.53-1.44.15-.16,2.53,1.44-.15.16Z"/><path class="cls-62" d="M27.5,37.83,25,36.39a2.54,2.54,0,0,1,.45-.36L28,37.47a1.87,1.87,0,0,0-.45.36Z"/></g></g></g><path class="cls-78" d="M83.9,1.79c1.39-.82,2.53-.17,2.54,1.43l.07,5.59L23.47,46l-.06-5.59A5.53,5.53,0,0,1,25.89,36Zm-49,34.73a3,3,0,0,0,1.33-2.36c0-.86-.62-1.21-1.37-.77a3,3,0,0,0-1.34,2.36c0,.86.63,1.21,1.38.77Zm-3.47,2a3,3,0,0,0,1.34-2.35c0-.86-.63-1.21-1.37-.77a3,3,0,0,0-1.34,2.36c0,.86.63,1.2,1.37.76Zm-3.46,2a3,3,0,0,0,1.34-2.35c0-.87-.62-1.21-1.37-.77a3,3,0,0,0-1.34,2.36c0,.86.63,1.2,1.37.76Z"/><path class="cls-79" d="M34.87,33.39c.75-.44,1.36-.09,1.37.77a3,3,0,0,1-1.33,2.36c-.75.44-1.37.09-1.38-.77A3,3,0,0,1,34.87,33.39Z"/><path class="cls-80" d="M31.41,35.43c.74-.44,1.36-.09,1.37.77a3,3,0,0,1-1.34,2.35c-.74.44-1.36.1-1.37-.76A3,3,0,0,1,31.41,35.43Z"/><path class="cls-81" d="M28,37.47c.75-.44,1.36-.1,1.37.77A3,3,0,0,1,28,40.59c-.74.44-1.36.1-1.37-.76A3,3,0,0,1,28,37.47Z"/><polygon class="cls-1" points="23.97 88.39 21.45 86.95 20.88 38.93 23.41 40.37 23.97 88.39"/><path class="cls-82" d="M23.41,40.37,23.47,46l63-37.15L87,51.25a5.56,5.56,0,0,1-2.48,4.39l-58,34.18C25.13,90.64,24,90,24,88.39Z"/><path class="cls-16" d="M84.45,1.54a1.6,1.6,0,0,1,.41-.09h0a1.33,1.33,0,0,1,.4,0h0a1.4,1.4,0,0,1,.36.13h0l-.4-.22-.09-.06L84.68,1,83.15.16A.31.31,0,0,0,83,.1l-.13,0L82.8,0h0L82.6,0h-.36L82,.07l-.1,0a.32.32,0,0,0-.09,0l-.11,0a2.34,2.34,0,0,0-.35.18l-58,34.18a3.63,3.63,0,0,0-.47.33l-.15.14-.22.19-.09.1-.08.09-.1.1-.2.25-.07.11,0,0-.07.1-.14.22a2.39,2.39,0,0,0-.13.21v0l-.1.18a2,2,0,0,0-.1.21.88.88,0,0,0-.09.2h0a1.36,1.36,0,0,0-.09.23l-.09.24a.93.93,0,0,1,0,.13.06.06,0,0,1,0,0l0,.09-.06.29a1.13,1.13,0,0,0,0,.18l0,.09s0,0,0,.08a4.32,4.32,0,0,0,0,.5L21,44.52,23.47,46l-.06-5.59a2.83,2.83,0,0,1,0-.58s0-.06,0-.1a4,4,0,0,1,.13-.55s0,0,0,0a4.84,4.84,0,0,1,.22-.6h0a6.27,6.27,0,0,1,.29-.58l0,0a6,6,0,0,1,.34-.53l0-.06c.11-.15.23-.29.35-.43l.1-.11.3-.28a1.07,1.07,0,0,1,.16-.14,2.86,2.86,0,0,1,.47-.33l58-34.19a2.35,2.35,0,0,1,.46-.21Z"/><polygon class="cls-47" points="72.94 45.58 69.31 43.47 86.26 10.33 89.89 12.44 72.94 45.58"/><polygon class="cls-83" points="63.37 51.11 59.74 49 69.31 43.47 72.94 45.58 63.37 51.11"/><polygon class="cls-84" points="56.88 61.98 53.25 59.88 59.74 49 63.37 51.11 56.88 61.98"/><polygon class="cls-83" points="46.27 68.45 42.64 66.34 53.25 59.88 56.88 61.98 46.27 68.45"/><polygon class="cls-44" points="37.02 81.56 33.39 79.46 42.64 66.34 46.27 68.45 37.02 81.56"/><polygon class="cls-85" points="37.04 88.66 33.41 86.55 33.39 79.46 37.02 81.56 37.04 88.66"/><polygon class="cls-80" points="89.89 12.44 90.02 58.07 37.04 88.66 37.02 81.56 46.27 68.45 56.88 61.98 63.37 51.11 72.94 45.58 89.89 12.44"/><polygon class="cls-86" points="17.11 18.15 16.2 16.56 17.11 14.98 18.94 14.98 19.85 16.56 18.94 18.15 17.11 18.15"/><polygon class="cls-87" points="17.11 20.61 16.2 19.03 17.11 17.45 18.94 17.45 19.85 19.03 18.94 20.61 17.11 20.61"/><polygon class="cls-88" points="17.11 23.08 16.2 21.5 17.11 19.91 18.94 19.91 19.85 21.5 18.94 23.08 17.11 23.08"/><polygon class="cls-89" points="17.11 25.54 16.2 23.96 17.11 22.38 18.94 22.38 19.85 23.96 18.94 25.54 17.11 25.54"/><polygon class="cls-90" points="17.11 28.01 16.2 26.43 17.11 24.84 18.94 24.84 19.85 26.43 18.94 28.01 17.11 28.01"/><polygon class="cls-91" points="17.11 30.48 16.2 28.89 17.11 27.31 18.94 27.31 19.85 28.89 18.94 30.48 17.11 30.48"/><polygon class="cls-92" points="17.11 32.94 16.2 31.36 17.11 29.78 18.94 29.78 19.85 31.36 18.94 32.94 17.11 32.94"/><polygon class="cls-93" points="17.11 18.15 16.2 16.56 17.11 14.98 18.94 14.98 19.85 16.56 18.94 18.15 17.11 18.15"/><polygon class="cls-86" points="12.46 44.98 11.55 43.4 12.46 41.81 14.29 41.81 15.2 43.4 14.29 44.98 12.46 44.98"/><polygon class="cls-87" points="12.46 47.45 11.55 45.86 12.46 44.28 14.29 44.28 15.2 45.86 14.29 47.45 12.46 47.45"/><polygon class="cls-88" points="12.46 49.91 11.55 48.33 12.46 46.75 14.29 46.75 15.2 48.33 14.29 49.91 12.46 49.91"/><polygon class="cls-89" points="12.46 52.38 11.55 50.79 12.46 49.21 14.29 49.21 15.2 50.79 14.29 52.38 12.46 52.38"/><polygon class="cls-90" points="12.46 54.84 11.55 53.26 12.46 51.68 14.29 51.68 15.2 53.26 14.29 54.84 12.46 54.84"/><polygon class="cls-91" points="12.46 57.31 11.55 55.73 12.46 54.14 14.29 54.14 15.2 55.73 14.29 57.31 12.46 57.31"/><polygon class="cls-92" points="12.46 59.77 11.55 58.19 12.46 56.61 14.29 56.61 15.2 58.19 14.29 59.77 12.46 59.77"/><polygon class="cls-93" points="12.46 44.98 11.55 43.4 12.46 41.81 14.29 41.81 15.2 43.4 14.29 44.98 12.46 44.98"/><path class="cls-94" d="M75.43,65l.26-.11c.32-.13.65-.26,1-.38l1.35-.44.16,0,1.37-.42.15,0,1.48-.44.26-.07,1.4-.41.24-.07,1.5-.43.3-.08,1.31-.37.34-.09,1.25-.35.53-.14.81-.22c2.37-.64,4.17-1.11,4.63-1.23l.09,0L91,57.93,89,58.44l-.13,0-.54.15-.39.1-.16,0-1.23.33-.26.08-1,.26-.35.1-1.4.39-.2,0-1.49.42-.13,0-1.62.47-.12,0-1.53.44-.16,0-1.56.47-.06,0-1.44.44-.13,0-1.35.44-.74.27-.2.08-.18.07-.16.07-.61.27-.22.11c-.25.13-.49.25-.7.38a14,14,0,0,0-1.74,1.18,14,14,0,0,1-1.22.89l-.31.16-.2.06a.19.19,0,0,1-.08,0,1.17,1.17,0,0,1-.27,0h-.37l-.31,0-.16,0-.21,0-.39-.14-.1,0-.51-.24-.6-.28h0c-.25-.1-.49-.19-.73-.26h0a3.78,3.78,0,0,0-.56-.13l-.07,0h0a5,5,0,0,0-.54-.06h-.64l-.17,0-.15,0-.28,0-.14,0,0,0a3.09,3.09,0,0,0-.43.14l-.1,0h0a4.18,4.18,0,0,0-.56.28,5.57,5.57,0,0,0-.59.4l-.19.16c-.14.11-.27.22-.41.35l-.1.09-.14.14-.21.24-.12.12a2.11,2.11,0,0,1-.19.23l-.13.16-.07.09c-.12.15-.24.32-.36.49h0l-.07.11-.29.43a.64.64,0,0,0-.08.14l-.15.23-.15.25-.15.26c0,.11-.11.21-.17.32l-.09.17c-.11.2-.22.4-.33.62s-.28.56-.43.82l-.09.16c-.15.25-.29.49-.44.72l-.12.17c-.13.2-.27.4-.41.58l-.08.12-.5.61-.3.32-.27.28a10.11,10.11,0,0,1-.8.69l-.19.15a8.51,8.51,0,0,1-.83.55,8.22,8.22,0,0,1-.84.42l-.24.1c-.21.08-.43.15-.64.21l-.23.07c-.22.06-.44.1-.65.14l-.11,0a6.88,6.88,0,0,1-.77.07h-1q-.36,0-.72-.09l-.14,0h0l-.13,0H45.9l-.14,0-.12,0h-.06l-.25.08h0a1.87,1.87,0,0,0-.32.15,5.16,5.16,0,0,0-.51.35l-.07.06c-.16.13-.32.28-.49.44a.08.08,0,0,0,0,0s0,0,0,0c-.17.17-.34.35-.51.55l0,0-.05.06-.5.62s0,0,0,0,0,0-.05.06c-.19.25-.38.5-.57.77l0,0,0,0-.67,1a.1.1,0,0,1,0,0l0,0c-.3.46-.58.93-.86,1.4a0,0,0,0,1,0,0s0,0,0,0c-.18.31-.36.62-.53.93l-.06.11c-.17.3-.33.6-.48.89l0,.05,0,.06c-.12.21-.23.43-.34.63l0,.07c-.09.19-.19.37-.28.55a.83.83,0,0,1-.07.13c-.09.18-.18.36-.26.54l-.06.11-.22.45s0,0,0,0v0l-.26.54s0,0,0,0l-.2.42v0c-.12.25-.19.42-.22.47l2.92,1.7,0-.1.07-.15.06-.15A1,1,0,0,0,40.5,90l.16-.32.06-.15c.07-.14.14-.3.23-.47L41,89l.19-.4.06-.12c.09-.17.17-.35.27-.54l.06-.12c.09-.18.18-.36.28-.54a.3.3,0,0,1,0-.08l.32-.62.07-.13q.23-.44.48-.87l.06-.13.52-.91,0-.07c.27-.47.56-1,.85-1.4l.06-.1c.22-.34.45-.69.67-1l0-.07c.19-.27.38-.53.57-.77a.35.35,0,0,1,.07-.09l.5-.62.09-.1q.25-.29.51-.54a.3.3,0,0,1,.08-.08,5.07,5.07,0,0,1,.5-.45l.06,0a5.16,5.16,0,0,1,.51-.35l.31-.16.28-.09h0l.26,0h0a1.27,1.27,0,0,1,.28,0h.14c.24,0,.48.07.73.09h1a6.88,6.88,0,0,0,.77-.07h0l.09,0,.67-.14.08,0,.14,0a5.39,5.39,0,0,0,.64-.22l.15,0,.09,0a8.22,8.22,0,0,0,.84-.42,8.51,8.51,0,0,0,.83-.55l.19-.15a8.52,8.52,0,0,0,.8-.7l0,0,.27-.28c.08-.1.18-.19.27-.29l0,0c.14-.16.29-.34.43-.53l0,0a.44.44,0,0,0,.08-.11l.26-.34.16-.24.1-.16.08-.12q.16-.26.33-.54l0-.07.09-.16.2-.36.24-.46c.13-.28.28-.54.41-.8l.17-.3.31-.53.13-.22c.13-.21.26-.41.4-.6l.05-.08c.14-.2.29-.4.44-.59l.14-.16c.09-.13.2-.24.3-.36l.22-.23.23-.23.41-.36.18-.15a5.51,5.51,0,0,1,1.18-.69l.1,0A3,3,0,0,1,64.1,67l.14,0,.43-.07.17,0h.58a5.67,5.67,0,0,1,1.25.22c.24.07.48.16.73.26s.42.18.64.29l.5.24h0l.1,0A3.3,3.3,0,0,0,69,68l0,0,.19,0,.13,0h0l.26,0h.44l.22,0h0l0,0,.2-.07h0l.31-.15A14,14,0,0,0,72.16,67a15.13,15.13,0,0,1,1.74-1.19c.22-.12.45-.25.7-.37l.22-.1C75,65.19,75.22,65.1,75.43,65Z"/><path class="cls-95" d="M62.94,67.45a5.05,5.05,0,0,1,5.1.16c1.4.72,2.14.67,2.9.23A14,14,0,0,0,72.16,67a15.13,15.13,0,0,1,1.74-1.19,15.41,15.41,0,0,1,2.8-1.24c5.79-1.93,16.6-4.74,17.17-4.89l-53.62,31c.23-.5,4.45-9.9,7.68-11.77a1.75,1.75,0,0,1,1.18-.28,7.72,7.72,0,0,0,5.37-.91A11.71,11.71,0,0,0,59,72.46C60.23,69.87,61.55,68.25,62.94,67.45Z"/><g class="cls-5"><polygon class="cls-95" points="68.61 36.48 63.97 33.79 76.91 11.81 81.55 14.5 68.61 36.48"/><polygon class="cls-95" points="61.36 32.88 56.72 30.18 63.97 33.79 68.61 36.48 61.36 32.88"/><polygon class="cls-95" points="53.2 45.89 48.56 43.2 56.72 30.18 61.36 32.88 53.2 45.89"/><polygon class="cls-95" points="48.06 45.33 43.43 42.63 48.56 43.2 53.2 45.89 48.06 45.33"/><polygon class="cls-95" points="35.98 61.27 31.34 58.58 43.43 42.63 48.06 45.33 35.98 61.27"/><polygon class="cls-95" points="35.94 61.64 31.31 58.94 23.13 54.09 27.77 56.79 35.94 61.64"/><polygon class="cls-95" points="19.54 71.53 14.9 68.84 23.12 53.71 27.76 56.4 19.54 71.53"/><polygon class="cls-95" points="81.55 14.5 81.71 14.6 68.61 36.85 61.35 33.24 53.22 46.21 48.07 45.64 35.94 61.64 27.77 56.79 19.72 71.61 19.54 71.53 27.76 56.4 35.98 61.27 48.06 45.33 53.2 45.89 61.36 32.88 68.61 36.48 81.55 14.5"/></g><polygon class="cls-95" points="69.65 16.17 81.71 8.33 81.71 22.27 69.65 16.17"/><g class="cls-96"><path class="cls-97" d="M110,71.81c8.12,4.7,8.17,12.3.1,17s-21.2,4.68-29.32,0-8.17-12.3-.1-17S101.84,67.13,110,71.81Z"/><g class="cls-98"><path class="cls-99" d="M110,63.54c8.12,4.69,8.17,12.3.1,17s-21.2,4.69-29.32,0-8.17-12.29-.1-17S101.84,58.85,110,63.54Z"/></g><g class="cls-100"><path class="cls-101" d="M110,55.27c8.12,4.69,8.17,12.29.1,17s-21.2,4.69-29.32,0-8.17-12.29-.1-17S101.84,50.58,110,55.27Z"/></g><g class="cls-102"><path class="cls-103" d="M110,47c8.12,4.69,8.17,12.29.1,17s-21.2,4.69-29.32,0-8.17-12.29-.1-17S101.84,42.31,110,47Z"/></g><g class="cls-104"><path class="cls-105" d="M110,38.73c8.12,4.69,8.17,12.29.1,17s-21.2,4.69-29.32,0-8.17-12.29-.1-17S101.84,34,110,38.73Z"/></g><g class="cls-106"><path class="cls-107" d="M110,30.46c8.12,4.69,8.17,12.29.1,17s-21.2,4.69-29.32,0-8.17-12.3-.1-17S101.84,25.77,110,30.46Z"/></g><g class="cls-108"><path class="cls-109" d="M110,22.19c8.12,4.68,8.17,12.29.1,17s-21.2,4.7-29.32,0-8.17-12.29-.1-17S101.84,17.5,110,22.19Z"/></g></g><path class="cls-110" d="M91.45,47.4s-1.1,11.25-.71,13.67,1.35,15,1.35,15a1.18,1.18,0,0,0,.92.42c1.27.11,1.45-.29,1.45-.29s2.28-10.34.9-13.92l1.55-12V48.56A28.61,28.61,0,0,1,91.45,47.4Z"/><path class="cls-111" d="M91.74,76.22a3.05,3.05,0,0,0,.11-1.1,3.79,3.79,0,0,0,2.81,0,3.12,3.12,0,0,0,.06,1.3C94.92,77,92,76.94,91.74,76.22Z"/><path class="cls-112" d="M94.46,76.05s1,1.63-.12,2.13-1.12-.28-3.2,1.51-4,1.06-4.25.69c-.66-.92.45-1.86,5.06-4.32Z"/><path class="cls-113" d="M94.33,78.18c-1.07.59-1.12-.28-3.2,1.51s-3.95,1-4.25.69a.42.42,0,0,1-.06-.23c1.94.72,3-.29,3.84-1a6.3,6.3,0,0,1,3-1.29c1.33-.31.84-1.39.84-1.39,0-.21,0-1.3.19-1.31C94.64,76.43,95.51,77.52,94.33,78.18Z"/><path class="cls-114" d="M90.57,44.86s-1,10-.45,15.74a133.85,133.85,0,0,1,1,15.37c-.05,1.08,4,2.28,4.32,0,.34-2.71,1.54-10.35-.11-13.73l2.69-14.71S93.26,46.8,90.57,44.86Z"/><path class="cls-110" d="M97.31,48.28s-1.06,11.94-.69,14.5,1.36,16,1.36,16h2.2S102.52,67.2,101,64l1.48-12.74V49.52A24.41,24.41,0,0,1,97.31,48.28Z"/><path class="cls-111" d="M97.65,78.47a3.05,3.05,0,0,0,.11-1.1,3.79,3.79,0,0,0,2.81,0,3,3,0,0,0,.06,1.3C100.82,79.26,97.89,79.19,97.65,78.47Z"/><path class="cls-112" d="M100.36,78.3s1,1.64-.12,2.16S99.11,80.17,97,82s-4,1.07-4.3.68c-.66-.92.45-2.41,5.12-4.9Z"/><path class="cls-113" d="M100.23,80.46c-1.08.6-1.13-.29-3.23,1.53s-4,1.05-4.29.68a.47.47,0,0,1-.07-.22c2,.73,3-.3,3.88-1a6.43,6.43,0,0,1,3-1.31c1.35-.3.85-1.4.85-1.4,0-.21,0-1.31.19-1.32C100.55,78.69,101.42,79.79,100.23,80.46Z"/><path class="cls-115" d="M103.05,46.41s1.9,2.86.5,9.66-1.89,8.81-1.89,8.81.34.86,0,6.31c-.31,5.12-.32,4.78-.44,7.26,0,1-4,1.43-4.16-.63C96.71,73.44,96.32,62,96.32,62l-.95-10.89-4.8-6.29S100.46,48.2,103.05,46.41Z"/><path class="cls-110" d="M80.35,35.47a3.43,3.43,0,0,0-1.56-.64,3.26,3.26,0,0,0-2.1.2c-.67.2-1.16.41-1,.74a3.15,3.15,0,0,0,2.43.88c.56-.09,1.87.79,2.19.82S80.67,35.69,80.35,35.47Z"/><path class="cls-116" d="M80.26,37.47c-.32,0-1.63-.91-2.19-.82A3.67,3.67,0,0,1,76,36.11a.05.05,0,0,1,0,0c.15-.18.61,0,.92,0s1.23.09,1.83,0a3.66,3.66,0,0,1,1.64.72l.1.08C80.47,37.21,80.38,37.48,80.26,37.47Z"/><path class="cls-117" d="M94.86,27.14a2.06,2.06,0,0,0-3.59-.08c-1.3,1.56-3.84,8-4.63,8.48-.39.24-6.49-.54-6.49-.54s.84,1-.52,2.63c0,0,7.74,3.26,9.2,1.74C91.33,36.76,95.73,30,94.86,27.14Z"/><path class="cls-118" d="M102.47,28.37c-.8-.71-9.23-3.05-10.21-2.32-.64.48-.82.52-1.94,3.69a7,7,0,0,0,.28,4.95c1.46,3.16,1.22,4.77,1.14,5.64-.11,1.27-1.42,3.39-1.17,4.53.33,1.55,10.44,4.78,12.48,1.55,0,0,.51-.23-.58-3.7C100.17,35.32,105.4,31,102.47,28.37Z"/><path class="cls-119" d="M103.05,46.41Z"/><path class="cls-120" d="M95.16,24.64a7,7,0,0,1,0,3.2c-.46,1.1,1.22,1.46,2,1.18s2.06-.83,1.89-1.54-.88-3-.42-3.86S95.16,24.64,95.16,24.64Z"/><path class="cls-110" d="M99.22,18.19s2.4,2.38,1.75,4.89c-.36,1.38-2,2.29-2.86,3s-2.74,2.34-4.18,1.17-1.82-6.68,0-9.06S99.22,18.19,99.22,18.19Z"/><path class="cls-121" d="M94,19.22s-.23,1.62,3.43,2.14c.9.12.73,2.86,1.44,2.17.26-.26,1-.78,1-.38.41,1.87-2.26,2.66-2.06,4,.51,3.15,5.44,3.38,4.41-6.83-.27-2.63-2.09-4.81-5.81-4.16a4.09,4.09,0,0,0-3.48,4.28S93.34,19.15,94,19.22Z"/><path class="cls-110" d="M95.38,43.12a3.52,3.52,0,0,0-1.67.25A3.22,3.22,0,0,0,92,44.63c-.48.51-.79.95-.53,1.19a3.18,3.18,0,0,0,2.53-.5c.44-.37,2-.28,2.31-.42S95.77,43.14,95.38,43.12Z"/><path class="cls-116" d="M96.33,44.9C96,45,94.46,45,94,45.32a3.55,3.55,0,0,1-2,.6v-.05c0-.23.53-.31.77-.51s1.1-.56,1.59-.91a3.66,3.66,0,0,1,1.78-.23l.13,0C96.38,44.56,96.44,44.85,96.33,44.9Z"/><path class="cls-122" d="M102.69,28.63s-1.91-.94-2.37,1.05.92,9.41.5,10.24c-.21.42-5.85,2.89-5.85,2.89s1.22.43.9,2.55c0,0,8.32-1.18,8.79-3.25C105.48,38.56,104.92,30.68,102.69,28.63Z"/></g></g></svg>