<svg xmlns="http://www.w3.org/2000/svg" xmlns:xlink="http://www.w3.org/1999/xlink" viewBox="0 0 103.94 98"><defs><style>.cls-1{fill:#85a9ff;}.cls-2{fill:none;}.cls-3{opacity:0.1;}.cls-4{isolation:isolate;}.cls-5{fill:#4881ff;}.cls-6{fill:#0f4bb7;}.cls-7{fill:#6a96ef;}.cls-8{clip-path:url(#clip-path);}.cls-9{fill:#aecfff;}.cls-10{fill:#dcc9a0;}.cls-11{fill:#584245;}.cls-12{fill:#62494d;}.cls-13{fill:#91bdf2;}.cls-14{fill:#2263d6;}.cls-15{fill:#82b3b8;}.cls-16{fill:#92c8ce;}.cls-17{fill:#24b8d1;}.cls-18{fill:#1c8ea2;}.cls-19{fill:#09aebf;}.cls-20{opacity:0.5;}.cls-21{opacity:0.6;}.cls-22{fill:#6e97ea;}.cls-23{fill:#edb93b;}.cls-24{fill:#ede416;}.cls-25{fill:#752289;}.cls-26{clip-path:url(#clip-path-2);}.cls-27{fill:#972cb1;}.cls-28{fill:#932bac;}.cls-29{fill:#902aa8;}.cls-30{fill:#8c29a4;}.cls-31{fill:#88289f;}.cls-32{fill:#84279b;}.cls-33{fill:#812596;}.cls-34{fill:#7d2492;}.cls-35{fill:#79238d;}.cls-36{fill:#83239b;}.cls-37{fill:#922bab;}.cls-38{fill:#09b4c6;}.cls-39{fill:#0be1f7;}.cls-40{fill:#3d93ff;}.cls-41{fill:#ffaa83;}.cls-42{fill:#5bb0ff;}.cls-43{fill:#0e007a;}.cls-44{fill:#160f96;}.cls-45{fill:url(#linear-gradient);}.cls-46{fill:#ef916c;}.cls-47{fill:#994e17;}</style><clipPath id="clip-path"><path class="cls-1" d="M32.63,1.88l3-1.72A1.7,1.7,0,0,1,37.3.33l-3,1.72A1.72,1.72,0,0,0,32.63,1.88Z"/></clipPath><clipPath id="clip-path-2"><path class="cls-2" d="M43.72,36.61,41.37,38l.21-.11a.88.88,0,0,1,.83.07l2.36-1.37a.88.88,0,0,0-.83-.07Z"/></clipPath><linearGradient id="linear-gradient" x1="352.89" y1="24.71" x2="353.17" y2="46.73" gradientTransform="matrix(-0.98, -0.17, -0.17, 0.98, 375.14, 62.86)" gradientUnits="userSpaceOnUse"><stop offset="0" stop-color="#5ab0ff"/><stop offset="1" stop-color="#3c84f7"/></linearGradient></defs><title>Asset 4</title><g id="Layer_2" data-name="Layer 2"><g id="Layer_1-2" data-name="Layer 1"><g class="cls-3"><polygon points="103.94 81.86 78.03 98 0 52.94 26.84 37.35 103.94 81.86"/></g><g class="cls-4"><polygon class="cls-5" points="77.07 65.81 77.07 67.91 65.27 74.76 65.27 72.66 77.07 65.81"/><polygon class="cls-6" points="65.27 72.66 65.27 74.76 39.7 60 39.7 57.9 65.27 72.66"/><polygon class="cls-7" points="77.07 65.81 65.27 72.66 39.7 57.9 51.5 51.05 77.07 65.81"/></g><path class="cls-1" d="M32.63,1.88l3-1.72A1.7,1.7,0,0,1,37.3.33l-3,1.72A1.72,1.72,0,0,0,32.63,1.88Z"/><g class="cls-8"><g class="cls-4"><path class="cls-1" d="M32.63,1.88l3-1.72.19-.09-3,1.72-.19.09Z"/><path class="cls-1" d="M32.82,1.79l3-1.72L36,0,33,1.75l-.17,0Z"/><path class="cls-1" d="M33,1.75,36,0l.14,0-3,1.72-.13,0Z"/><path class="cls-1" d="M33.12,1.73l3-1.72h.12l-3,1.72Z"/><path class="cls-1" d="M33.25,1.72l3-1.72h.12l-3,1.72Z"/><path class="cls-1" d="M33.36,1.72l3-1.72h.1l-3,1.73-.11,0Z"/><path class="cls-1" d="M33.47,1.74l3-1.73.11,0-3,1.72Z"/><path class="cls-1" d="M33.58,1.75l3-1.72.1,0-3,1.72-.1,0Z"/><path class="cls-1" d="M33.68,1.77l3-1.72.1,0-3,1.72-.1,0Z"/><path class="cls-1" d="M33.78,1.8l3-1.72.09,0-3,1.72-.09,0Z"/><path class="cls-1" d="M33.87,1.83l3-1.72.1,0L34,1.87l-.1,0Z"/><path class="cls-1" d="M34,1.87l3-1.72.09,0-3,1.72-.09,0Z"/><path class="cls-1" d="M34.06,1.91,37,.19a.31.31,0,0,1,.1,0L34.16,2l-.1-.05Z"/><path class="cls-1" d="M34.16,2l3-1.72.1,0L34.26,2l-.1,0Z"/><path class="cls-1" d="M34.26,2l3-1.72.08,0-3,1.72-.08,0Z"/></g></g><path class="cls-5" d="M87.11,67.67l0,4.15a2.78,2.78,0,0,1,0,.51v0a1.6,1.6,0,0,1-.13.42h0a1.52,1.52,0,0,1-.19.28l-.06.08a1.13,1.13,0,0,1-.27.22l3-1.72a1.32,1.32,0,0,0,.26-.22l.07-.09a.39.39,0,0,0,.08-.1.65.65,0,0,0,.09-.16h0l0-.12a.5.5,0,0,0,0-.13.56.56,0,0,0,0-.12.09.09,0,0,1,0-.05v0a.11.11,0,0,1,0,0s0-.07,0-.11a.49.49,0,0,1,0-.12.45.45,0,0,1,0-.11V70.1h0V66Z"/><polygon class="cls-5" points="64.93 67.95 74.49 67.31 67.06 63.01 64.93 67.95"/><g class="cls-4"><polygon class="cls-1" points="63.49 50.77 65.9 49.37 67.36 66.54 64.93 67.95 63.49 50.77"/><polygon class="cls-1" points="49.57 42.74 51.99 41.33 65.9 49.37 63.49 50.77 49.57 42.74"/><polygon class="cls-9" points="63.49 50.77 64.93 67.95 48.53 58.48 49.57 42.74 63.49 50.77"/></g><polygon class="cls-10" points="31.84 35.76 34.8 34.04 90.07 65.95 87.11 67.67 31.84 35.76"/><polygon class="cls-11" points="34.09 4.7 37.05 2.98 36.97 32.81 34 34.53 34.09 4.7"/><polygon class="cls-12" points="34 34.53 36.97 32.81 87.51 61.99 84.55 63.71 34 34.53"/><path class="cls-13" d="M87.11,67.67l0,4.15c0,1.52-1.07,2.14-2.4,1.37L34.22,44.05a5.25,5.25,0,0,1-2.39-4.14V35.76Z"/><polygon class="cls-14" points="84.63 33.88 84.55 63.71 34 34.53 34.09 4.7 84.63 33.88"/><polygon class="cls-15" points="84.63 33.88 87.59 32.16 87.51 61.99 84.55 63.71 84.63 33.88"/><polygon class="cls-16" points="34.09 4.7 37.05 2.98 87.59 32.16 84.63 33.88 34.09 4.7"/><polygon class="cls-5" points="87.2 35.34 90.16 33.61 90.07 65.95 87.11 67.67 87.2 35.34"/><polygon class="cls-1" points="34.34 2.05 37.3 0.33 87.77 29.47 84.81 31.19 34.34 2.05"/><path class="cls-9" d="M84.81,31.19a5.28,5.28,0,0,1,2.39,4.15l-.09,32.33L31.84,35.76l.09-32.34c0-1.52,1.08-2.13,2.41-1.37Zm-.26,32.52.08-29.83L34.09,4.7,34,34.53,84.55,63.71Z"/><path class="cls-1" d="M90.16,33.61V33.5a.45.45,0,0,0,0-.11,17064725530374.61,17064725530374.61,0,0,1,0-.24.5.5,0,0,0,0-.12h0a.52.52,0,0,0,0-.11l0-.12,0-.13,0-.13,0-.1h0a0,0,0,0,1,0,0s0-.08,0-.12a.56.56,0,0,1,0-.12l0-.12a.37.37,0,0,0,0-.11l0-.09h0v0l-.06-.12-.06-.12-.07-.15-.09-.16h0l0,0h0l-.18-.28c-.05-.07-.09-.14-.14-.2l0,0a.64.64,0,0,0-.1-.13l-.09-.12-.09-.11-.09-.1,0,0h0l-.07-.07-.1-.1-.11-.1-.11-.1,0,0h0l0,0-.11-.08-.1-.08-.11-.07-.1-.06h0l-3,1.72a2.86,2.86,0,0,1,.47.33h0a5.51,5.51,0,0,1,.43.41h0c.14.15.27.31.4.48h0a6.06,6.06,0,0,1,.35.53s0,0,0,0a5.64,5.64,0,0,1,.5,1.16h0c0,.2.1.4.13.59h0a4,4,0,0,1,0,.59Z"/><path class="cls-17" d="M95.68,78.55l.68-.27c-.21-.53-5.12-13.16-14.35-12.79-4.59.18-6.65-3.64-8.84-7.68-2-3.68-4.06-7.48-8.16-8.64-3.87-1.1-6.48-7.16-9-13C53.08,29.34,50.3,22.9,45.48,22.9h0c-2.88,0-4.5,2.45-6.05,4.79-2.09,3.14-4.24,6.38-9.53,4.77l-9.64-2.94-.21.71,9.64,2.93c5.8,1.77,8.22-1.86,10.35-5.06,1.52-2.29,3-4.45,5.45-4.46h0c4.34,0,7.14,6.51,9.86,12.81,2.59,6,5.27,12.23,9.47,13.42,3.81,1.08,5.79,4.74,7.71,8.29,2.2,4.06,4.46,8.28,9.52,8.06C90.69,65.89,95.63,78.42,95.68,78.55Z"/><path class="cls-18" d="M85.39,65.28c-.52-.3-.94-.06-.94.54a2.07,2.07,0,0,0,.93,1.62c.52.29.94,0,.94-.54A2.07,2.07,0,0,0,85.39,65.28Z"/><path class="cls-19" d="M87.26,67.49c0,1.19-.85,1.67-1.88,1.07a4.12,4.12,0,0,1-1.87-3.23c0-1.19.85-1.67,1.88-1.08A4.15,4.15,0,0,1,87.26,67.49Zm-1.88,0c.52.29.94,0,.94-.54a2.07,2.07,0,0,0-.93-1.62c-.52-.3-.94-.06-.94.54a2.07,2.07,0,0,0,.93,1.62Z"/><path class="cls-18" d="M68.12,50.72c-.52-.3-.94-.06-.94.53a2.08,2.08,0,0,0,.93,1.62c.52.3.94.06.94-.53A2,2,0,0,0,68.12,50.72Z"/><path class="cls-19" d="M70,52.93c0,1.19-.84,1.67-1.88,1.07a4.12,4.12,0,0,1-1.86-3.24c0-1.19.84-1.67,1.87-1.07A4.1,4.1,0,0,1,70,52.93Zm-1.88-.06c.52.3.94.06.94-.53a2,2,0,0,0-.93-1.62c-.52-.3-.94-.06-.94.53a2.08,2.08,0,0,0,.93,1.62Z"/><path class="cls-18" d="M46.59,22.65c-.51-.29-.93,0-.93.54a2,2,0,0,0,.93,1.62c.52.3.94.06.94-.54A2.08,2.08,0,0,0,46.59,22.65Z"/><path class="cls-19" d="M48.47,24.86c0,1.19-.85,1.67-1.88,1.07a4.08,4.08,0,0,1-1.87-3.23c0-1.19.84-1.67,1.88-1.07A4.12,4.12,0,0,1,48.47,24.86Zm-1.88-.05c.52.3.94.06.94-.54a2.08,2.08,0,0,0-.94-1.62c-.51-.29-.93,0-.93.54a2,2,0,0,0,.93,1.62Z"/><path class="cls-18" d="M20,28.87c-.52-.29-.94-.05-.94.54A2.09,2.09,0,0,0,20,31c.52.3.94.06.94-.54A2.07,2.07,0,0,0,20,28.87Z"/><path class="cls-19" d="M21.89,31.08c0,1.19-.85,1.67-1.88,1.07a4.12,4.12,0,0,1-1.87-3.23c0-1.19.85-1.67,1.88-1.07A4.09,4.09,0,0,1,21.89,31.08ZM20,31c.52.3.94.06.94-.54A2.07,2.07,0,0,0,20,28.87c-.52-.29-.94-.05-.94.54A2.09,2.09,0,0,0,20,31Z"/><path class="cls-18" d="M96,78c-.51-.29-.94,0-.94.54A2.09,2.09,0,0,0,96,80.12c.52.3.94.06.95-.54A2.08,2.08,0,0,0,96,78Z"/><path class="cls-19" d="M97.89,80.17c0,1.19-.84,1.67-1.88,1.07A4.08,4.08,0,0,1,94.15,78c0-1.19.84-1.67,1.87-1.07A4.07,4.07,0,0,1,97.89,80.17Zm-1.88,0c.52.3.94.06.95-.54A2.08,2.08,0,0,0,96,78c-.51-.29-.94,0-.94.54A2.09,2.09,0,0,0,96,80.12Z"/><g class="cls-20"><path class="cls-1" d="M20,26.85c-1.52-.88-2.76-.17-2.76,1.58A6,6,0,0,0,20,33.19c1.53.89,2.77.18,2.78-1.57A6.08,6.08,0,0,0,20,26.85Z"/></g><g class="cls-20"><path class="cls-1" d="M20,34a7.62,7.62,0,0,1-3.44-6c0-1.52.78-2.5,2-2.5a3.15,3.15,0,0,1,1.57.48,7.59,7.59,0,0,1,3.44,6c0,1.52-.78,2.5-2,2.5A3.15,3.15,0,0,1,20,34Zm-3.27-6A7.4,7.4,0,0,0,20,33.84a3,3,0,0,0,1.49.46c1.11,0,1.81-.89,1.81-2.33A7.41,7.41,0,0,0,20,26.15a3,3,0,0,0-1.48-.45C17.39,25.7,16.7,26.59,16.69,28Z"/></g><g class="cls-21"><path class="cls-1" d="M20,28.29c-.83-.49-1.51-.1-1.52.86A3.34,3.34,0,0,0,20,31.76c.84.49,1.52.1,1.52-.86A3.31,3.31,0,0,0,20,28.29Z"/></g><path class="cls-1" d="M20,28.56c-.68-.39-1.24-.07-1.24.71A2.72,2.72,0,0,0,20,31.4c.69.4,1.24.08,1.24-.7A2.74,2.74,0,0,0,20,28.56Z"/><path class="cls-22" d="M20,29.21c-.38-.22-.68-.05-.68.38A1.49,1.49,0,0,0,20,30.76c.38.22.68,0,.68-.39A1.46,1.46,0,0,0,20,29.21Z"/><g class="cls-20"><path class="cls-1" d="M46.6,20.63c-1.52-.88-2.76-.17-2.77,1.58A6.06,6.06,0,0,0,46.58,27c1.53.88,2.77.18,2.77-1.57A6.07,6.07,0,0,0,46.6,20.63Z"/></g><g class="cls-20"><path class="cls-1" d="M46.54,27.77a7.56,7.56,0,0,1-3.44-6c0-1.52.78-2.5,2-2.5a3.15,3.15,0,0,1,1.57.48,7.6,7.6,0,0,1,3.45,6c0,1.52-.78,2.5-2,2.5A3.15,3.15,0,0,1,46.54,27.77Zm-3.27-6a7.4,7.4,0,0,0,3.35,5.81,3,3,0,0,0,1.49.46c1.11,0,1.8-.9,1.8-2.33a7.39,7.39,0,0,0-3.35-5.81,3,3,0,0,0-1.49-.46C44,19.48,43.27,20.37,43.27,21.81Z"/></g><g class="cls-21"><path class="cls-1" d="M46.59,22.07c-.83-.49-1.51-.1-1.51.86a3.31,3.31,0,0,0,1.51,2.61c.83.48,1.51.1,1.52-.86A3.32,3.32,0,0,0,46.59,22.07Z"/></g><path class="cls-1" d="M46.59,22.34c-.68-.39-1.23-.07-1.23.71a2.69,2.69,0,0,0,1.23,2.13c.68.4,1.23.08,1.24-.71A2.72,2.72,0,0,0,46.59,22.34Z"/><path class="cls-22" d="M46.59,23c-.37-.21-.67,0-.67.39a1.46,1.46,0,0,0,.67,1.17c.37.22.68,0,.68-.39A1.49,1.49,0,0,0,46.59,23Z"/><g class="cls-20"><path class="cls-1" d="M68.13,48.65c-1.53-.88-2.77-.17-2.77,1.57A6.06,6.06,0,0,0,68.11,55c1.52.88,2.76.17,2.77-1.58A6.08,6.08,0,0,0,68.13,48.65Z"/></g><g class="cls-20"><path class="cls-1" d="M68.06,55.79a7.63,7.63,0,0,1-3.44-6c0-1.52.79-2.5,2-2.5a3.15,3.15,0,0,1,1.57.48,7.55,7.55,0,0,1,3.44,5.95c0,1.52-.78,2.5-2,2.5A3.27,3.27,0,0,1,68.06,55.79Zm-3.27-6a7.42,7.42,0,0,0,3.36,5.81,3,3,0,0,0,1.49.46c1.11,0,1.8-.9,1.8-2.34A7.4,7.4,0,0,0,68.09,48a3.06,3.06,0,0,0-1.49-.45C65.49,47.5,64.8,48.39,64.79,49.83Z"/></g><g class="cls-21"><path class="cls-1" d="M68.12,50.08c-.83-.48-1.51-.09-1.51.87a3.3,3.3,0,0,0,1.5,2.61c.84.48,1.52.09,1.52-.87A3.31,3.31,0,0,0,68.12,50.08Z"/></g><path class="cls-1" d="M68.12,50.36c-.68-.39-1.23-.08-1.23.71a2.68,2.68,0,0,0,1.22,2.13c.69.39,1.24.08,1.24-.71A2.69,2.69,0,0,0,68.12,50.36Z"/><path class="cls-22" d="M68.12,51c-.37-.21-.68,0-.68.39a1.49,1.49,0,0,0,.68,1.17c.37.21.67,0,.68-.39A1.51,1.51,0,0,0,68.12,51Z"/><g class="cls-20"><path class="cls-1" d="M85.39,63.21c-1.52-.88-2.76-.17-2.77,1.58a6.08,6.08,0,0,0,2.75,4.76c1.53.88,2.77.18,2.77-1.58A6,6,0,0,0,85.39,63.21Z"/></g><g class="cls-20"><path class="cls-1" d="M85.33,70.35a7.59,7.59,0,0,1-3.44-6c0-1.52.78-2.5,2-2.5a3.15,3.15,0,0,1,1.57.48,7.62,7.62,0,0,1,3.44,6c0,1.52-.78,2.5-2,2.5A3.15,3.15,0,0,1,85.33,70.35Zm-3.27-6a7.4,7.4,0,0,0,3.35,5.81,3,3,0,0,0,1.49.46c1.11,0,1.8-.9,1.81-2.33a7.43,7.43,0,0,0-3.36-5.82,3,3,0,0,0-1.48-.45C82.76,62.06,82.06,63,82.06,64.39Z"/></g><g class="cls-21"><path class="cls-1" d="M85.39,64.64c-.84-.48-1.52-.09-1.52.87a3.31,3.31,0,0,0,1.51,2.61c.83.48,1.51.1,1.52-.86A3.37,3.37,0,0,0,85.39,64.64Z"/></g><path class="cls-1" d="M85.39,64.92c-.68-.39-1.24-.07-1.24.71a2.72,2.72,0,0,0,1.23,2.13c.68.4,1.24.08,1.24-.71A2.74,2.74,0,0,0,85.39,64.92Z"/><path class="cls-22" d="M85.39,65.56c-.38-.21-.68,0-.68.39a1.49,1.49,0,0,0,.67,1.17c.37.22.68,0,.68-.39A1.5,1.5,0,0,0,85.39,65.56Z"/><g class="cls-20"><path class="cls-1" d="M96,75.89c-1.53-.88-2.77-.17-2.77,1.58A6.1,6.1,0,0,0,96,82.24c1.52.88,2.76.17,2.77-1.58A6.07,6.07,0,0,0,96,75.89Z"/></g><g class="cls-20"><path class="cls-1" d="M96,83a7.58,7.58,0,0,1-3.43-6c0-1.52.77-2.5,2-2.5a3.15,3.15,0,0,1,1.57.48,7.56,7.56,0,0,1,3.44,6c0,1.52-.78,2.5-2,2.5A3.19,3.19,0,0,1,96,83Zm-3.27-6a7.43,7.43,0,0,0,3.36,5.81,3,3,0,0,0,1.49.46c1.11,0,1.8-.89,1.8-2.33A7.4,7.4,0,0,0,96,75.2a3.08,3.08,0,0,0-1.49-.46C93.39,74.74,92.7,75.63,92.69,77.07Z"/></g><g class="cls-21"><path class="cls-1" d="M96,77.33c-.83-.48-1.51-.1-1.51.86A3.3,3.3,0,0,0,96,80.8c.84.49,1.52.1,1.52-.86A3.29,3.29,0,0,0,96,77.33Z"/></g><path class="cls-1" d="M96,77.61c-.68-.4-1.23-.08-1.23.7A2.67,2.67,0,0,0,96,80.44c.69.4,1.24.08,1.24-.7A2.68,2.68,0,0,0,96,77.61Z"/><path class="cls-22" d="M96,78.25c-.37-.22-.68,0-.68.38A1.47,1.47,0,0,0,96,79.8c.37.22.68,0,.68-.38A1.5,1.5,0,0,0,96,78.25Z"/><path class="cls-23" d="M21.42,48.45a1.92,1.92,0,0,0-.32-.09h0a1.36,1.36,0,0,0-.35,0h0a1,1,0,0,0-.34.13l.55-.32,1.46-.85.12-.06.11,0,.1,0h0l.11,0h.26a.86.86,0,0,1,.17,0l.14,0,.06,0h0a2.59,2.59,0,0,1,.33.17,10.74,10.74,0,0,1,1.66,1.32,11.46,11.46,0,0,0,1.73,1.35l.37.19.19.07.12,0a2.3,2.3,0,0,0,.28.06h0a1.51,1.51,0,0,0,.3,0,3,3,0,0,0,.54-.11l.05,0a2.78,2.78,0,0,0,.46-.21l-2,1.16,0,0a1.34,1.34,0,0,1-.27.13l-.15.06-.05,0-.06,0-.27.06-.21,0h0a1,1,0,0,1-.17,0h-.18l-.21,0h0l-.12,0-.15,0,0,0-.37-.19A11.46,11.46,0,0,1,23.5,50a10.57,10.57,0,0,0-1.65-1.32,3.14,3.14,0,0,0-.37-.18Z"/><path class="cls-23" d="M31.84,49.07l-.19,0-.16,0a1.81,1.81,0,0,0-.23,0h-.45l-.22,0-.07,0-.24.08s0,0,0,0a1.34,1.34,0,0,0-.27.13h0l1.47-.86.51-.29h0a1,1,0,0,1,.23-.12h0l0,0,.17-.06h0l.07,0,.09,0h.72l.1,0,.15,0,.09,0,.11,0,.28.1.1,0,.08,0,.61.31c1.63,1,3.8,2.61,5.75,3.73l.79.44.21.1.6.28.18.08c.25.1.48.18.71.25l.31.07.17,0,.42,0h.07a1.5,1.5,0,0,0,.37,0h0a1.42,1.42,0,0,0,.36-.14h0l-2,1.16-.14.06-.14,0-.06,0h0l-.08,0-.2,0H42l-.31,0h0l-.18,0-.25-.06-.05,0a6.07,6.07,0,0,1-.72-.24l0,0-.13-.06c-.2-.08-.4-.18-.6-.28l-.22-.11-.79-.43c-1.95-1.13-4.11-2.74-5.75-3.73-.21-.12-.41-.22-.61-.31l-.18-.07Z"/><path class="cls-23" d="M50.42,43.17h-.08l-.29,0h-.11l-.27,0h-.09l-.36.08h0l-.33.12-.17.09-.21.1,2-1.16,0,0,.17-.09.17-.08h0l.28-.09.06,0h0l.31-.07h.13l.17,0h.3l.19,0h.12l.35.07h0a3,3,0,0,1,.44.16h0l.42.21a5.3,5.3,0,0,1,.55.37l.15.13a4.25,4.25,0,0,1,.46.4l.09.08,0,0,.33.35c0,.05.09.09.13.15l0,0,.16.19.26.32,0,0,.18.24c.07.1.15.19.22.3a.41.41,0,0,1,.05.09,3.62,3.62,0,0,1,.22.32l.17.25a.41.41,0,0,0,.07.11c.09.14.18.3.27.45s.1.15.14.23.11.2.17.29c.43.77.83,1.5,1.22,2.23,0,.07.07.14.11.2s.09.18.15.28c.92,1.75,1.74,3.4,2.48,4.94l.09.19.18.38.35.72c.16.34.32.68.48,1l.31.66.53,1.06c.09.18.17.37.26.54.22.44.44.87.66,1.28l.09.17c.21.4.43.79.64,1.16s.29.5.44.73l.13.22c.18.28.37.56.56.82l.12.17.47.61.13.15c.2.24.41.46.61.66s.33.29.49.43l.22.19a6.1,6.1,0,0,0,1.43.84l.29.1.43.15.46.1.27.06c.24,0,.5.06.77.08l.34,0,.08,0,.17,0a.76.76,0,0,1,.16,0l.11,0,.31.1.13.05.08,0a6.11,6.11,0,0,1,.63.31,11.51,11.51,0,0,1,2.17,1.7l.1.09h0c.37.36.74.75,1.1,1.17l0,0h0c.34.38.66.78,1,1.2l.06.07s0,0,0,0c.36.45.71.93,1,1.42l0,.05a0,0,0,0,1,0,0c.42.58.81,1.19,1.2,1.79l0,0,0,.06c.48.75.94,1.51,1.38,2.26v0l0,.07.79,1.39,0,.07c.25.44.48.88.71,1.31l.08.13,0,.1.43.83.14.27c.11.2.21.41.31.61l.13.26c.11.21.21.41.3.61a1.74,1.74,0,0,1,.1.19l.35.71,0,0,.19.4.06.14c.06.11.11.22.16.32l.09.2.09.19L86.78,87l-2,1.16c-.06-.14-.32-.74-.74-1.63L84,86.41c0-.09-.09-.19-.14-.29s-.07-.14-.1-.22-.09-.18-.13-.27l-.15-.3c-.11-.24-.23-.48-.36-.74a1.19,1.19,0,0,0-.08-.16l-.32-.65-.11-.22-.39-.76a.47.47,0,0,1,0-.1l-.5-.94,0-.06c-.24-.46-.5-.94-.77-1.42a.08.08,0,0,1,0,0c-.26-.45-.52-.92-.79-1.38L80,78.74c-.44-.76-.9-1.52-1.38-2.27l-.06-.08c-.39-.61-.79-1.22-1.2-1.8l0-.07c-.35-.49-.7-1-1.05-1.43L76.15,73c-.33-.42-.66-.83-1-1.21A16.24,16.24,0,0,0,74,70.57l0,0q-.56-.54-1.11-1l-.1-.07c-.16-.13-.31-.24-.47-.35s-.37-.25-.56-.36a6.25,6.25,0,0,0-.64-.31l-.21-.09-.3-.1-.27-.07-.17,0a2.1,2.1,0,0,0-.43,0c-.25,0-.5,0-.74-.08h0L68.72,68l-.41-.08,0,0c-.15,0-.3-.1-.44-.15l-.25-.08,0,0a5.52,5.52,0,0,1-.69-.34,7.52,7.52,0,0,1-.75-.5l-.26-.23c-.15-.13-.3-.25-.44-.39h0c-.18-.18-.36-.38-.54-.58l-.07-.08-.11-.14c-.09-.11-.18-.21-.26-.32l-.23-.3-.12-.17a.76.76,0,0,1-.08-.11c-.15-.22-.31-.45-.46-.69,0,0,0,0,0,0l-.13-.22L63,62.89a.41.41,0,0,0,0-.09q-.32-.54-.63-1.14l0-.06a1.09,1.09,0,0,1-.08-.15l-.65-1.26c-.08-.17-.16-.34-.25-.51l-.56-1.15a1,1,0,0,0-.07-.15L60.49,58l-.67-1.39c0-.12-.11-.24-.17-.36l-.33-.69c-.35-.71-.7-1.45-1.08-2.21,0-.06-.06-.12-.1-.18-.39-.79-.82-1.61-1.25-2.45l-.3-.56c-.38-.72-.78-1.45-1.21-2.2l-.33-.56c-.08-.13-.16-.27-.24-.39l-.27-.42-.18-.27-.3-.42c-.06-.07-.11-.15-.16-.22l-.28-.34-.18-.22L53.3,45,53,44.64a.74.74,0,0,0-.13-.12c-.15-.15-.3-.28-.45-.41L52.23,44a5.3,5.3,0,0,0-.55-.37l-.43-.22a3.81,3.81,0,0,0-.44-.15A1.8,1.8,0,0,0,50.42,43.17Z"/><path class="cls-24" d="M51.68,43.62c-4.58-2.64-7.53,6.24-8.06,9.49-.37,2.25-2.5,1.59-5,.17-1.95-1.13-4.11-2.74-5.75-3.73-3.68-2.13-3.73,1.91-6.37,2.14a2.21,2.21,0,0,1-1.31-.37A11.46,11.46,0,0,1,23.5,50a10.57,10.57,0,0,0-1.65-1.32c-1.05-.61-2-.44-2.69,1.94L84.78,88.18c-.35-.79-7-15.92-13-19.41a4.49,4.49,0,0,0-2-.66,6.37,6.37,0,0,1-2.9-.83C62.76,64.92,60.91,57.75,55.38,48A11.33,11.33,0,0,0,51.68,43.62Z"/><path class="cls-25" d="M16.42,54.07l-.84-.33a1.09,1.09,0,0,0-.23-.09l-.58-.22-.21-.08-.71-.25h0l-.61-.21L13,52.83l-.45-.14-.15,0-.55-.15-.55-.14-.16,0-.35-.08-.17,0-.27-.05-.15,0-.22,0-.14,0-.14,0-.12,0H9l2.35-1.36h.33l.12,0h.23l.13,0h.14l.22,0,.16,0,.26,0,.18,0,.35.08.15,0,.56.15h0l.52.15.16,0,.44.14.19.06.58.19.08,0,.7.24.22.08.56.21.26.1.83.33c.31.13.62.24.91.33l.24.07.53.15.51.11.43.07.34,0,.46,0h.25l.5,0,.17,0a4.29,4.29,0,0,0,.62-.14l.18-.06.43-.16c.12,0,.24-.12.36-.18s.2-.09.3-.15l-2.36,1.37-.07,0-.22.11-.36.18-.05,0-.37.13-.19.07h0a3.27,3.27,0,0,1-.56.13h0l-.19,0a2,2,0,0,1-.35,0h-.64l-.2,0-.35,0-.2,0-.22,0-.52-.11-.22,0-.3-.1-.25-.07C17,54.3,16.74,54.2,16.42,54.07Z"/><path class="cls-25" d="M28.42,50.19l-.11,0-.09,0-.17,0h-.32l-.23,0h-.06l-.18.06-.06,0-.24.11h0l1-.56,1.37-.8h0l.2-.09h0l.06,0,.1,0,.09,0h.09l.18,0h.39l.12,0,.09,0h0l.08,0,.2.07H31l0,0a2.78,2.78,0,0,1,.39.19,6.16,6.16,0,0,1,.59.4l.21.17.4.33.23.21.4.38.23.22.1.1.42.41c.15.16.31.32.47.47l.28.27.36.34.25.23.4.33.2.17a7,7,0,0,0,.6.4,3.14,3.14,0,0,0,.37.18l.1,0,.2.07.09,0,.09,0,.16,0h.31l.22,0,.05,0,.18,0,.06,0a1.13,1.13,0,0,0,.22-.11l-2.35,1.37h0l-.19.1h0l0,0-.09,0-.09,0h-.08l-.17,0h-.38l-.11,0-.09,0h0l-.07,0-.2-.07h0l0,0a2.25,2.25,0,0,1-.38-.19,5.12,5.12,0,0,1-.59-.4l-.21-.16L33.06,54l-.25-.23-.36-.34-.29-.27a.3.3,0,0,0-.08-.08l-.39-.39-.53-.53L31,52l-.42-.4-.22-.19c-.14-.13-.28-.24-.42-.35l-.19-.16a5.21,5.21,0,0,0-.6-.4,3.6,3.6,0,0,0-.39-.2l-.09,0Z"/><g class="cls-4"><g class="cls-26"><g class="cls-4"><path class="cls-27" d="M42.41,37.94l2.36-1.37-.14-.07-2.35,1.37.13.07Z"/><path class="cls-28" d="M42.28,37.87l2.35-1.37-.12,0-2.35,1.37.12,0Z"/><path class="cls-29" d="M42.16,37.83l2.35-1.37-.1,0-2.35,1.37.1,0Z"/><path class="cls-30" d="M42.06,37.81l2.35-1.37h-.09L42,37.8Z"/><path class="cls-31" d="M42,37.8l2.35-1.37h-.09L41.88,37.8Z"/><path class="cls-32" d="M41.88,37.8l2.35-1.37h-.09l-2.35,1.37Z"/><path class="cls-33" d="M41.79,37.81l2.35-1.37-.1,0-2.35,1.36.1,0Z"/><path class="cls-34" d="M41.69,37.83,44,36.47l-.1,0-2.36,1.37.11,0Z"/><path class="cls-35" d="M41.58,37.87l2.36-1.37h0a1.39,1.39,0,0,0-.21.11L41.37,38l.21-.1Z"/><path class="cls-25" d="M41.37,38l2.36-1.36h0L41.37,38Z"/></g></g></g><path class="cls-36" d="M48.5,55.47c-.07-.2-.13-.41-.19-.62s-.09-.3-.14-.45L48,53.77l-.14-.47-.12-.43c-.06-.22-.12-.44-.19-.66l-.09-.35c-.09-.32-.18-.64-.26-1s-.11-.4-.16-.6l-.27-1c-.13-.5-.27-1-.4-1.48,0-.11-.06-.21-.08-.32-.11-.38-.22-.77-.32-1.15a2.17,2.17,0,0,0-.07-.24l-.18-.65c0-.13-.07-.25-.11-.37s-.1-.37-.16-.55l-.12-.44c0-.15-.09-.3-.14-.45L45,43.17l-.12-.37c0-.17-.11-.35-.16-.51l-.08-.2c-.06-.19-.12-.38-.19-.56l-.09-.24-.17-.45c0-.11-.09-.23-.14-.34l-.15-.36-.1-.22-.22-.46,0,0L43.32,39a.08.08,0,0,1,0,0c-.1-.15-.19-.29-.28-.41h0a1.5,1.5,0,0,0-.2-.23l-.13-.13a2.14,2.14,0,0,0-.26-.19l2.36-1.37.2.14s0,0,.05,0l.14.13.09.1.11.13h0l.12.17.12.19,0,0s0,0,0,0l.09.14.17.31a0,0,0,0,1,0,0l0,0,.14.27a1.42,1.42,0,0,0,.08.18l.09.21.06.14a1.6,1.6,0,0,1,.1.23c0,.11.09.23.14.35s0,.08.05.13a2.77,2.77,0,0,1,.1.26c0,.1.08.2.11.3l.17.48.09.28,0,.06.1.34c.06.16.11.32.16.48s.09.28.13.43l.15.49c0,.16.09.32.14.47s.09.33.14.49l.15.54c0,.15.09.3.13.45s0,.09,0,.14,0,.19.08.29l.27,1c0,.13.07.26.1.4.11.4.22.82.34,1.23s.23.89.35,1.33c0,.13.07.26.11.39l.36,1.32s0,0,0,.08c.1.37.21.74.31,1.11,0,.11.06.21.1.32s.14.51.22.76.08.28.13.42.13.44.19.65.09.29.14.43.13.41.2.61l.15.46.15.43.17.48c.05.13.09.26.15.39l.13.36.29.72.14.32c.05.11.1.2.14.3s.13.29.2.42.07.16.12.24l.25.48.05.08c.1.18.21.36.32.52a.35.35,0,0,1,0,.08c.11.16.22.3.32.43l.06.07a3.2,3.2,0,0,0,.25.27l.13.14a3.05,3.05,0,0,0,.36.29c.13.09.26.18.38.28l.13.12a2.29,2.29,0,0,1,.23.21h0c.12.13.25.26.37.4h0l.33.41h0l.08.12.23.31,0,0,.19.28.13.2,0,0c.12.19.24.38.35.58h0s0,0,0,0l.37.66a.35.35,0,0,0,0,.08l0,.09c.18.33.35.67.52,1l0,0a.59.59,0,0,0,0,.08c.15.33.31.66.46,1a0,0,0,0,1,0,0c.17.36.33.73.49,1.1,0,0,0,0,0,0l0,0,.69,1.62L60.5,72l.09.2c.14.33.29.66.43,1a.59.59,0,0,0,0,.08c.13.3.27.59.4.87a1.42,1.42,0,0,1,.08.18c.16.31.31.62.47.92l.1.19c.09.17.18.34.28.5l.09.16a3.68,3.68,0,0,0,.24.39l.09.15.09.14c.07.12.15.23.22.33a.76.76,0,0,1,.08.11l.23.31.1.12.21.24.2.21.15.15.25.22.13.11a2.65,2.65,0,0,0,.39.26,1.91,1.91,0,0,0,.32.16l.13,0,.18.06.22,0h.06a1.63,1.63,0,0,0,.31,0h.08a3.88,3.88,0,0,1,.48,0h.06l.19,0,.28.07a.45.45,0,0,1,.11,0l.37.13.2.07.07,0a5.6,5.6,0,0,1,.74.36,6.81,6.81,0,0,1,.63.41l.19.13c.14.11.29.21.43.33s.14.12.21.18.25.21.37.32l.22.2.22.21.07.08c.27.27.54.55.79.83l0,.06.1.12.57.7.08.1,0,0,.6.81.06.08.07.11c.2.29.39.57.55.83l0,0,.12.19c.06.09.12.18.17.27l.12.2.15.24a.08.08,0,0,0,0,0l.15.26,0,.06c0,.08.09.15.12.22l0,0a1.14,1.14,0,0,0,.09.16h0l.07.13L72.64,88.7a.43.43,0,0,1,0-.1l-.1-.18,0-.07-.11-.19,0-.08-.16-.28L72,87.54l-.12-.2a2.13,2.13,0,0,1-.16-.25l-.15-.23c-.17-.27-.36-.56-.57-.85l-.1-.15L70.27,85l-.11-.13c-.18-.24-.37-.47-.58-.71L69.43,84c-.25-.28-.51-.56-.78-.83a3.83,3.83,0,0,0-.29-.28,2.39,2.39,0,0,0-.23-.22l-.35-.3-.23-.2c-.13-.11-.27-.2-.4-.3l-.21-.16c-.21-.14-.42-.28-.63-.4a7.29,7.29,0,0,0-.74-.37l-.27-.1-.38-.13-.39-.1-.19,0a4.2,4.2,0,0,0-.61-.06h0l-.25,0h-.08l-.18,0h0L63,80.36l-.12,0h0l-.33-.16a4.56,4.56,0,0,1-.39-.27L62,79.79l-.26-.23-.05,0a.94.94,0,0,0-.1-.1l-.22-.24,0-.05L61.2,79l-.12-.15,0,0-.15-.21-.12-.16,0,0-.14-.21L60.45,78v0l-.06-.09-.26-.44,0,0L60,77.26l-.29-.52a.41.41,0,0,0,0-.09l0-.09c-.16-.3-.32-.61-.47-.93l0,0a.61.61,0,0,0,0-.12c-.14-.28-.27-.57-.41-.87l0-.08c-.15-.32-.29-.65-.44-1a.36.36,0,0,0,0-.09.3.3,0,0,0,0-.1l-.65-1.53-.66-1.55-.09-.2c-.15-.34-.29-.68-.44-1a.3.3,0,0,1,0-.08c-.14-.31-.28-.62-.43-.92a.89.89,0,0,0-.08-.17c-.16-.34-.33-.67-.5-1,0-.07-.07-.14-.1-.2-.13-.24-.25-.47-.38-.69h0c-.11-.21-.24-.41-.36-.6a1.4,1.4,0,0,1-.1-.16l-.24-.35-.18-.25-.15-.2h0c-.11-.14-.22-.28-.33-.4a3.76,3.76,0,0,0-.38-.41l-.22-.2-.15-.14L52.27,63a4,4,0,0,1-.34-.27l0,0-.12-.12c-.06-.07-.12-.12-.18-.2a.73.73,0,0,1-.08-.09l-.05-.06-.07-.08a2.61,2.61,0,0,1-.19-.27l-.06-.08,0-.08L51,61.59c-.08-.12-.15-.24-.22-.37s0,0,0,0l0,0q-.09-.15-.18-.33a1.74,1.74,0,0,0-.1-.19l-.1-.21s0-.1-.08-.16-.09-.19-.13-.28-.09-.19-.13-.29L50,59.56l-.07-.19c-.1-.24-.21-.49-.3-.75a1.11,1.11,0,0,1-.07-.16,1.77,1.77,0,0,1-.06-.17l-.15-.39-.18-.51c-.05-.12-.09-.25-.13-.37s-.07-.2-.1-.31,0-.15-.08-.22-.12-.37-.17-.55Z"/><path class="cls-37" d="M42.41,37.94a.88.88,0,0,0-.83-.07c-3.71,1.56-2.22,15.49-5.27,17.22a2,2,0,0,1-2.06-.17,14.48,14.48,0,0,1-2.56-2.2,13.73,13.73,0,0,0-2.58-2.22,2,2,0,0,0-2.64.22c-3,3-4.91,5.44-10,3.35S9.15,52,9,52L72.64,88.7c-.14-.26-2.76-5.33-6.33-7.39a5.44,5.44,0,0,0-2.58-.8,2.61,2.61,0,0,1-1.23-.36c-3.91-2.26-6-14.34-10.23-17.15S45.66,39.81,42.41,37.94Z"/><path class="cls-38" d="M26.54,62.07,26.33,62c-.26-.11-.53-.21-.82-.31l-1.08-.35-.13,0-1.11-.34-.11,0-1.2-.36-.21-.06-1.13-.33-.19-.06-1.21-.34-.24-.07-1.06-.3-.27-.07-1-.28-.43-.11-.66-.18c-1.9-.52-3.35-.9-3.73-1l-.07,0L14,56.37l1.54.4.1,0,.44.12.31.08.14,0,1,.27.22.06.8.22.29.08L20,58l.17,0,1.19.33.11,0,1.3.36.1,0,1.23.36.14,0,1.25.38h.05l1.16.36.1,0,1.09.36.6.21.16.06.14.06.13.06.49.22.18.09.57.3a12,12,0,0,1,1.4.95,8.53,8.53,0,0,0,1,.72l.25.12a1,1,0,0,0,.16.06l.07,0a.78.78,0,0,0,.21,0h.3l.25,0,.13,0,.17,0,.32-.11.07,0,.41-.19c.17-.09.33-.16.49-.23h0l.59-.21h0a3.69,3.69,0,0,1,.45-.11h0a3.49,3.49,0,0,1,.44,0h.51l.15,0h.11l.23,0,.11,0h0a2.3,2.3,0,0,1,.34.12l.08,0h0a2.82,2.82,0,0,1,.46.23,4.45,4.45,0,0,1,.48.32l.15.12.32.29.09.07.11.12.17.18.1.11.15.18a1.47,1.47,0,0,1,.1.13l.06.07c.1.12.19.26.29.4h0l0,.09a3,3,0,0,1,.23.35.41.41,0,0,1,.07.11l.12.19.12.2.12.21a2.15,2.15,0,0,1,.14.26l.08.13.26.5c.11.23.23.45.35.67a.75.75,0,0,0,.07.12c.12.2.23.4.36.58l.09.14.33.47.07.09c.13.17.26.34.4.49l.24.26c.07.07.14.15.22.22a6.71,6.71,0,0,0,.64.57l.16.12c.22.16.44.31.66.44a5.3,5.3,0,0,0,.68.33l.2.09.51.17.18.05a3.58,3.58,0,0,0,.53.11l.09,0c.21,0,.41,0,.62.06h.83l.58-.07.11,0h.35l.09,0h.05l.2.07h0l.25.13a3.32,3.32,0,0,1,.41.28l.06,0q.19.16.39.36l0,0,0,0a4.35,4.35,0,0,1,.41.44l0,0a.1.1,0,0,0,0,0l.41.5v0l0,0c.15.2.31.41.46.63v0l0,0c.18.26.36.54.54.82l0,0,0,0q.36.55.69,1.14h0l0,0,.42.75a.41.41,0,0,1,.05.09q.21.36.39.72a.05.05,0,0,1,0,0l0,0,.27.52,0,.05.23.44a.54.54,0,0,1,.05.11l.22.43,0,.09c.07.13.12.25.18.36s0,0,0,0h0l.2.44a.05.05,0,0,1,0,0,3.26,3.26,0,0,1,.16.34s0,0,0,0c.1.2.16.34.18.38l-2.36,1.37s0-.05,0-.08a.67.67,0,0,1-.06-.12.61.61,0,0,0,0-.12l-.06-.12c0-.08-.08-.17-.12-.26l-.05-.12c-.06-.12-.12-.24-.18-.38a.31.31,0,0,1,0-.1l-.16-.32a.41.41,0,0,0,0-.09l-.21-.44a.31.31,0,0,1,0-.1L53.58,80l0-.06-.26-.5-.06-.1-.38-.71a.93.93,0,0,1-.05-.1l-.42-.73,0-.06-.69-1.13,0-.07c-.18-.28-.36-.56-.55-.82l0,0L50.57,75,50.51,75c-.13-.18-.27-.34-.4-.5a.27.27,0,0,1-.07-.08l-.41-.44-.07-.06c-.13-.13-.27-.25-.4-.36l0,0a3,3,0,0,0-.41-.28l-.25-.13L48.22,73h0A.76.76,0,0,0,48,73h0a.81.81,0,0,0-.22,0h-.12l-.58.07h-.18a4,4,0,0,1-.49,0,.4.4,0,0,1-.11,0h0a6.2,6.2,0,0,1-.62-.06h0l-.07,0a5,5,0,0,1-.53-.11h-.07l-.11,0a4.56,4.56,0,0,1-.52-.18l-.12,0-.07,0a4.73,4.73,0,0,1-.68-.33,5.61,5.61,0,0,1-.67-.45l-.15-.11a8.55,8.55,0,0,1-.65-.57s0,0,0,0l-.21-.22c-.07-.08-.15-.15-.22-.24l0,0c-.12-.13-.23-.27-.35-.42l0,0L41,70.05c-.06-.1-.13-.18-.2-.28a2.14,2.14,0,0,0-.13-.19l-.08-.13-.07-.09c-.09-.15-.18-.29-.26-.44s0,0,0-.06a.75.75,0,0,1-.07-.12l-.17-.3c-.06-.12-.13-.24-.19-.37l-.33-.64-.14-.24c-.08-.15-.16-.29-.25-.43l-.1-.18-.32-.48a.21.21,0,0,1,0-.06q-.18-.26-.36-.48l-.11-.13a3.47,3.47,0,0,0-.25-.29L37.75,65l-.19-.18a4.28,4.28,0,0,0-.33-.29,1.58,1.58,0,0,0-.15-.12,5,5,0,0,0-.47-.33,5.24,5.24,0,0,0-.48-.23l-.07,0a3,3,0,0,0-.39-.13l-.11,0a2.14,2.14,0,0,0-.35-.06l-.13,0h-.47a4.57,4.57,0,0,0-1,.18l-.59.21q-.25.1-.51.24l-.41.19h0l-.08,0-.3.11h0l-.15,0-.1,0h0l-.22,0h-.35l-.17,0h-.05l-.16-.06h0a1.42,1.42,0,0,1-.25-.12,11.85,11.85,0,0,1-1-.72,11.18,11.18,0,0,0-1.4-1,5.87,5.87,0,0,0-.56-.31L27,62.29Z"/><path class="cls-39" d="M36.61,64a4.07,4.07,0,0,0-4.11.14c-1.13.57-1.73.53-2.34.18a11.85,11.85,0,0,1-1-.72,11.18,11.18,0,0,0-1.4-1,11.93,11.93,0,0,0-2.26-1c-4.66-1.55-13.37-3.81-13.83-3.93l43.2,24.94c-.17-.4-3.58-8-6.18-9.48a1.41,1.41,0,0,0-1-.23,6.25,6.25,0,0,1-4.33-.73,9.52,9.52,0,0,1-3.6-4.17A9.22,9.22,0,0,0,36.61,64Z"/><g class="cls-3"><path d="M12.58,71.52c-5.18,3-5.21,7.84-.06,10.84s13.54,3,18.72,0,5.22-7.85.06-10.84S17.77,68.52,12.58,71.52Z"/></g><path class="cls-40" d="M30.59,32.07a1.67,1.67,0,0,0,1,2.08A1.76,1.76,0,0,0,30.59,32.07Z"/><path class="cls-41" d="M30.44,32.64a3.51,3.51,0,0,1,2.64-1.89c.61-.16,1-.18,1.17.07s0,1-1.25,1.4S31.68,33.88,31.45,34,30.29,32.93,30.44,32.64Z"/><path class="cls-41" d="M31.6,32.71a6.75,6.75,0,0,0,1.84-.37c1-.4-.07.58-.29.68s-1.74,1-1.74,1A3.17,3.17,0,0,1,31.6,32.71Z"/><path class="cls-40" d="M17.27,29.35c-.19-.93,1-2.56,2.39-1.76s4,6.76,5.12,7.28c.35.17,5.81-2.8,5.81-2.8s-.45,1.08,1,2.08c0,0-6.11,4.45-7.66,3.58C21.3,36.23,17.81,32,17.27,29.35Z"/><path class="cls-41" d="M18.18,46.59s1.39,2.2,2.79,1.93,1.58-.58,1-1S19.81,46.12,20.1,46s1,0,.89-.24-2-.66-2-.66l-1.37.67Z"/><path class="cls-42" d="M17.22,74.26c.08,0,4.35-.12,3.4,1.43a2.4,2.4,0,0,1-2.11,1.2c-.64,0-1.81-.34-2.1-.17s-1.73,1.16-2.56.18a1.5,1.5,0,0,1-.17-1.13A8.85,8.85,0,0,1,17.22,74.26Z"/><path class="cls-40" d="M20.62,75.69a2.4,2.4,0,0,1-2.11,1.2c-.64,0-1.81-.34-2.1-.17s-1.73,1.16-2.56.18a1.18,1.18,0,0,1-.19-.56,2,2,0,0,0,2.39.33,2.26,2.26,0,0,1,1.65-.35,3.17,3.17,0,0,0,2.38-.6,1,1,0,0,0,.27-1A.62.62,0,0,1,20.62,75.69Z"/><path class="cls-43" d="M15.09,42.19s-3.61,3.24-.94,10.87c.58,1.66,1.74,5.2,1.36,6.94-.47,2.09-1.14,1.5-1.63,8.41-.43,6.1-.35,4.77-.5,7.25,0,.7,2.63,1.44,3,.35,1.76-4.79,4.21-14.8,3.71-20.33S19.31,45,19.31,45A21.34,21.34,0,0,1,15.09,42.19Z"/><path class="cls-42" d="M25.46,78c.08,0,4.45-.94,3.74.83a2.54,2.54,0,0,1-2,1.63c-.66.14-1.92,0-2.19.23s-1.58,1.51-2.6.66a1.55,1.55,0,0,1-.37-1.14C22.13,79.8,25,78,25.46,78Z"/><path class="cls-40" d="M29.2,78.81a2.54,2.54,0,0,1-2,1.63c-.66.14-1.92,0-2.19.23s-1.58,1.51-2.6.66a1.18,1.18,0,0,1-.3-.54,2.08,2.08,0,0,0,2.52-.11A2.38,2.38,0,0,1,26.31,80,3.39,3.39,0,0,0,28.65,79a1,1,0,0,0,.11-1.08A.63.63,0,0,1,29.2,78.81Z"/><path class="cls-44" d="M16.39,46s-3,3.09,2.37,10.93c0,0,2.61,5.58,2.52,7.36-.11,2.14-1,2.34-.13,9.32.75,6.07.44,6.2.92,6.7s3.06,0,3.15-1.06c.47-5.93,1.43-14.65.88-20.17C25.46,52.77,25,47.56,25,47.56S18.36,47.27,16.39,46Z"/><path class="cls-45" d="M27.94,34.74s1.14-2.62-3.07-5.22-7-3.13-7.6-.59-.37,6.54-.67,7.69c-.73,2.8-1,3.62-1.94,5-1.62,2.28-2,5.17,5.15,7.11,1.25.34,5.5,1.55,5.54-1.54C25.48,37.64,26.79,37.67,27.94,34.74Z"/><path class="cls-40" d="M37.87,32.81s-.16,1.34,1.55,1.73A1.76,1.76,0,0,0,37.87,32.81Z"/><path class="cls-41" d="M39.13,34.41a3,3,0,0,0,1.2-.84,3,3,0,0,0,.85-1.68c.19-.59.23-1,0-1.16s-1,0-1.47,1.16S38,33.1,37.8,33.32,38.83,34.54,39.13,34.41Z"/><path class="cls-41" d="M39.12,33.25c.16-.06-.09-.61.5-1.81.45-.93-.59,0-.7.25s-1.12,1.68-1.12,1.68A3,3,0,0,0,39.12,33.25Z"/><path class="cls-42" d="M24.3,33.68c-.42-.85.3-2.73,1.85-2.32S31.78,36.83,33,37c.38.07,4.87-4.23,4.87-4.23s-.15,1.16,1.55,1.73c0,0-4.73,5.9-6.45,5.46C30,39.26,25.53,36.11,24.3,33.68Z"/><path class="cls-41" d="M25.1,26.36a4,4,0,0,0-.39,3.2c.36.79-5.28.5-4.19-1.28a3.92,3.92,0,0,0-.2-4.49Z"/><path class="cls-46" d="M24.6,27.69a8.23,8.23,0,0,1-1.75-1.09l-.09,0h-.48l-1-.52a4.1,4.1,0,0,0,3.31,3A4.23,4.23,0,0,1,24.6,27.69Z"/><path class="cls-41" d="M26.81,18.59a8.94,8.94,0,0,1,1.12,3.87c.21,2.48.21,4.37-1.22,5.12-.68.35-4.94.44-5.77-4.67C20.41,19.65,23.3,16.13,26.81,18.59Z"/><path class="cls-47" d="M27.6,19.11c1.18.8,2.09,1.26-.29,2.06-1.89.64-1.63,3.28-2.33,3.61-.39.19-.21-.49-.78-1-.26-.25-.95-.42-1.1.63s.65,2.43.14,2.67c-.78.36-2.46-.69-3.15-1.79-1-1.58-1.7-5.85,1.62-7.56C24.56,16.23,26.65,18.47,27.6,19.11Z"/></g></g></svg>