<svg xmlns="http://www.w3.org/2000/svg" xmlns:xlink="http://www.w3.org/1999/xlink" viewBox="0 0 104.93 96.01"><defs><style>.cls-1,.cls-27{opacity:0.1;}.cls-2{fill:#0a34bc;}.cls-3{fill:#5783ff;}.cls-4{fill:#8fb0f9;}.cls-5{fill:#ede416;}.cls-6{fill:#edb93b;}.cls-7{fill:#fff35a;}.cls-8{fill:#bd37dd;}.cls-9{fill:#e578ff;}.cls-10{fill:#eea6ff;}.cls-11{isolation:isolate;}.cls-12{fill:#6632c9;}.cls-13{fill:#9761ff;}.cls-14{fill:#a684f7;}.cls-15{fill:#24b8d1;}.cls-16,.cls-18,.cls-19,.cls-20,.cls-40{fill:#0be1f7;}.cls-17{fill:#9df0f9;}.cls-18,.cls-26{opacity:0.2;}.cls-19,.cls-23,.cls-29{opacity:0.5;}.cls-20,.cls-25{opacity:0.3;}.cls-21,.cls-40{opacity:0.7;}.cls-22{fill:#40ebf4;opacity:0.6;}.cls-23{fill:#39e0ea;}.cls-24{fill:#33d4df;opacity:0.4;}.cls-25{fill:#2cc9d5;}.cls-26{fill:#25bdca;}.cls-27{fill:#1fb2c0;}.cls-28,.cls-29{fill:#18a6b5;}.cls-28{opacity:0;}.cls-30{fill:#5bb0ff;}.cls-31{fill:#3d93ff;}.cls-32{fill:#0e007a;}.cls-33{fill:#160f96;}.cls-34{fill:#ffaa83;}.cls-35{fill:#e84cbe;}.cls-36{fill:url(#linear-gradient);}.cls-37{fill:#f79f7c;}.cls-38{fill:#994e17;}.cls-39{fill:#f98cda;}</style><linearGradient id="linear-gradient" x1="88.04" y1="32.4" x2="87.08" y2="52.61" gradientUnits="userSpaceOnUse"><stop offset="0" stop-color="#fa5fc8"/><stop offset="1" stop-color="#b161cb"/></linearGradient></defs><title>Asset 3</title><g id="Layer_2" data-name="Layer 2"><g id="Layer_1-2" data-name="Layer 1"><path class="cls-1" d="M103.81,79.76a11.44,11.44,0,0,0-3.94-3.52C95.76,73.87,90.1,73,84.79,73.49a23,23,0,0,0-9.15,2.75c-3,1.74-4.62,4-4.92,6.23-.37,2.8,1.29,5.67,5,7.81,5.63,3.25,14.16,3.77,20.7,1.58A18.91,18.91,0,0,0,100,90.28C104.85,87.44,106.13,83.29,103.81,79.76Z"/><g class="cls-1"><polygon points="11.76 86.98 27.29 96.01 89.98 59.81 74.45 50.79 11.76 86.98"/></g><polygon class="cls-2" points="81.54 50.05 81.54 60.23 76.29 63.35 76.4 53.04 81.54 50.05"/><polygon class="cls-3" points="76.29 52.4 76.29 63.35 71.11 60.36 71.22 50.05 76.29 52.4"/><polygon class="cls-4" points="81.54 50.05 76.4 53.04 71.22 50.05 76.36 47.07 81.54 50.05"/><polygon class="cls-5" points="72.04 46.72 72.04 65.74 66.79 68.85 66.9 49.71 72.04 46.72"/><polygon class="cls-6" points="66.9 49.71 66.79 68.85 61.62 65.87 61.73 46.72 66.9 49.71"/><polygon class="cls-7" points="72.04 46.72 66.9 49.71 61.73 46.72 66.87 43.73 72.04 46.72"/><polygon class="cls-8" points="62.49 41.42 62.49 70.28 57.24 73.4 57.35 44.33 62.49 41.42"/><polygon class="cls-9" points="57.35 44.33 57.24 73.4 52.06 70.41 52.17 41.34 57.35 44.33"/><polygon class="cls-10" points="62.49 41.34 57.35 44.33 52.17 41.34 57.32 38.35 62.49 41.34"/><g class="cls-11"><polygon class="cls-12" points="52.68 37.26 52.57 75.78 47.43 78.77 47.54 40.24 52.68 37.26"/><polygon class="cls-13" points="47.54 40.24 47.43 78.77 42.25 75.78 42.36 37.26 47.54 40.24"/><polygon class="cls-14" points="52.68 37.26 47.54 40.24 42.36 37.26 47.5 34.27 52.68 37.26"/></g><polygon class="cls-15" points="43.02 52.29 43.02 81.16 37.76 84.27 37.87 55.2 43.02 52.29"/><polygon class="cls-16" points="37.87 55.2 37.76 84.27 32.59 81.28 32.7 52.21 37.87 55.2"/><polygon class="cls-17" points="43.01 52.21 37.87 55.2 32.7 52.21 37.84 49.22 43.01 52.21"/><polygon class="cls-2" points="33.24 68.72 33.24 87.74 27.99 90.86 28.1 71.71 33.24 68.72"/><polygon class="cls-3" points="28.1 71.71 27.99 90.86 22.81 87.87 22.92 68.72 28.1 71.71"/><polygon class="cls-4" points="33.24 68.72 28.1 71.71 22.92 68.72 28.06 65.73 33.24 68.72"/><path class="cls-18" d="M12.94,48.46V23S31.38,2.88,81.12,8V33.4S35.57,27.17,12.94,48.46Z"/><path class="cls-19" d="M12.94,48.46v.88C35.57,28.05,81.12,34.27,81.12,34.27V33.4S35.57,27.17,12.94,48.46Z"/><path class="cls-19" d="M12.94,23.05v.88C35.57,2.64,81.12,8.86,81.12,8.86V8S35.57,1.76,12.94,23.05Z"/><path class="cls-20" d="M15.1,25.15v3.53A49.48,49.48,0,0,1,30.7,19V15.65C19.75,20.06,15.1,25.15,15.1,25.15Z"/><path class="cls-20" d="M15.1,30.41v3.53a49.48,49.48,0,0,1,15.6-9.67V20.91C19.75,25.32,15.1,30.41,15.1,30.41Z"/><path class="cls-20" d="M15.1,35.67v3.52a49.63,49.63,0,0,1,15.6-9.66V26.16C19.75,30.58,15.1,35.67,15.1,35.67Z"/><path class="cls-20" d="M15.1,40.92v3.53a49.63,49.63,0,0,1,15.6-9.66V31.42C19.75,35.84,15.1,40.92,15.1,40.92Z"/><path class="cls-20" d="M56.56,27.6l2.74-.12.25-6.9c-.9.05-1.81.1-2.74.17Z"/><path class="cls-20" d="M52.69,27.88c.87-.08,1.73-.14,2.58-.2l.15-4.08-2.59.27Z"/><path class="cls-20" d="M41.31,29.66l2.56-.39-.15-4.09c-.85.15-1.7.3-2.56.47Z"/><path class="cls-20" d="M38,30.12l2.56-.39-.09-2.14L37.88,28Z"/><path class="cls-18" d="M48.94,28.27c.87-.11,1.73-.2,2.58-.28L52,16.39c-.87.11-1.74.22-2.61.35Z"/><path class="cls-18" d="M44.74,28.85c.92-.14,1.83-.28,2.75-.4l.24-6.6c-.92.15-1.83.31-2.75.49Z"/><path class="cls-18" d="M62.76,14.49a127,127,0,0,1,17.05.84V12.68a150.51,150.51,0,0,0-17.05-.81Z"/><path class="cls-18" d="M62.76,18.88a126.11,126.11,0,0,1,17.05.83V17.06a150.51,150.51,0,0,0-17.05-.81Z"/><path class="cls-18" d="M62.76,23.26a128.15,128.15,0,0,1,17.05.83V21.44a150.51,150.51,0,0,0-17.05-.81Z"/><g class="cls-21"><path class="cls-16" d="M32.2,33.94h-.44c0-.51.21-5,1.42-5.8a.78.78,0,0,1,.74-.07,3.3,3.3,0,0,1,1.32,1.14c.17.23.34.45.46.45h0c.13,0,.38-.2.91-1.08a19,19,0,0,0,1.44-3.73c.66-2.13,1.28-4.13,2.52-4.47a5.48,5.48,0,0,1,1.5-.14c1.1,0,1.83,0,2.46-2.31,1-3.64,2.8-5.74,4.88-5.62s4.19,3.89,4.85,5.6c.11.28.25.33.35.34.73.08,2.2-1.51,3.27-3,.37-.54.78-.78,1.21-.71,1,.18,1.58,2.08,1.69,2.46a15.08,15.08,0,0,1,.2,2.13c.16,2.51.45,7.17,1.82,7.46l-.09.43c-1.7-.36-2-4.87-2.17-7.86a16.49,16.49,0,0,0-.19-2c-.26-1-.79-2.05-1.33-2.15-.25,0-.51.14-.79.53-.39.57-2.42,3.39-3.68,3.23a.87.87,0,0,1-.7-.63c-.7-1.8-2.72-5.21-4.47-5.31S45.85,14.66,45,18c-.72,2.67-1.73,2.65-2.88,2.64a4.75,4.75,0,0,0-1.38.12c-1,.28-1.63,2.26-2.22,4.17A19,19,0,0,1,37,28.79c-.54.91-.89,1.28-1.25,1.3s-.58-.28-.84-.62a2.82,2.82,0,0,0-1.14-1,.34.34,0,0,0-.34,0C32.55,29.05,32.24,32.62,32.2,33.94Z"/></g><polygon class="cls-22" points="88.62 2.56 87.88 1.28 88.62 0 90.1 0 90.84 1.28 90.1 2.56 88.62 2.56"/><polygon class="cls-23" points="88.62 4.55 87.88 3.27 88.62 1.99 90.1 1.99 90.84 3.27 90.1 4.55 88.62 4.55"/><polygon class="cls-24" points="88.62 6.54 87.88 5.26 88.62 3.98 90.1 3.98 90.84 5.26 90.1 6.54 88.62 6.54"/><polygon class="cls-25" points="88.62 8.53 87.88 7.25 88.62 5.98 90.1 5.98 90.84 7.25 90.1 8.53 88.62 8.53"/><polygon class="cls-26" points="88.62 10.53 87.88 9.25 88.62 7.97 90.1 7.97 90.84 9.25 90.1 10.53 88.62 10.53"/><polygon class="cls-27" points="88.62 12.52 87.88 11.24 88.62 9.96 90.1 9.96 90.84 11.24 90.1 12.52 88.62 12.52"/><polygon class="cls-28" points="88.62 14.51 87.88 13.23 88.62 11.96 90.1 11.96 90.84 13.23 90.1 14.51 88.62 14.51"/><polygon class="cls-29" points="88.62 2.56 87.88 1.28 88.62 0 90.1 0 90.84 1.28 90.1 2.56 88.62 2.56"/><polygon class="cls-22" points="0.83 14.65 0 13.21 0.83 11.76 2.51 11.76 3.35 13.21 2.51 14.65 0.83 14.65"/><polygon class="cls-23" points="0.83 16.91 0 15.46 0.83 14.02 2.51 14.02 3.35 15.46 2.51 16.91 0.83 16.91"/><polygon class="cls-24" points="0.83 19.17 0 17.72 0.83 16.27 2.51 16.27 3.35 17.72 2.51 19.17 0.83 19.17"/><polygon class="cls-25" points="0.83 21.43 0 19.98 0.83 18.53 2.51 18.53 3.35 19.98 2.51 21.43 0.83 21.43"/><polygon class="cls-26" points="0.83 23.69 0 22.24 0.83 20.79 2.51 20.79 3.35 22.24 2.51 23.69 0.83 23.69"/><polygon class="cls-27" points="0.83 25.95 0 24.5 0.83 23.05 2.51 23.05 3.35 24.5 2.51 25.95 0.83 25.95"/><polygon class="cls-28" points="0.83 28.2 0 26.76 0.83 25.31 2.51 25.31 3.35 26.76 2.51 28.2 0.83 28.2"/><polygon class="cls-29" points="0.83 14.65 0 13.21 0.83 11.76 2.51 11.76 3.35 13.21 2.51 14.65 0.83 14.65"/><path class="cls-30" d="M96.67,83s.8,1.65-.4,2.16-1.2-.28-3.42,1.54-4.23,1.06-4.55.69S88,85.25,93,82.75Z"/><path class="cls-31" d="M96.27,85.12c-1.2.52-1.2-.28-3.42,1.54s-4.23,1.06-4.56.69a.47.47,0,0,1-.07-.22c2.08.73,3.2-.3,4.12-1a6.77,6.77,0,0,1,3.15-1.32c1.43-.31.91-1.41.91-1.41a.69.69,0,0,1,.39-.14C97,83.77,97.14,84.75,96.27,85.12Z"/><path class="cls-30" d="M85.7,79.78s.67,1.71-.56,2.13S84,81.53,81.6,83.18s-4.3.72-4.59.33-.09-2.11,5-4.23Z"/><path class="cls-31" d="M85.13,81.91c-1.23.42-1.17-.38-3.53,1.27s-4.3.72-4.59.33a.45.45,0,0,1-.06-.23c2,.89,3.22,0,4.19-.68a7,7,0,0,1,3.25-1.07c1.44-.19,1-1.33,1-1.33a.68.68,0,0,1,.4-.1C85.92,80.61,86,81.61,85.13,81.91Z"/><path class="cls-32" d="M81.64,45.5S80.87,57.81,81,62.3s-.59,13,.13,17.19c.23,1.36,5.39,1.75,5.66.27.77-4.12.08-13.68.08-13.68l2.36-17.37S84.31,48.87,81.64,45.5Z"/><path class="cls-33" d="M84.26,49.87S86.9,63,87.92,67.35,89.47,79,91.29,83.57c.51,1.28,5.72.79,5.79-.54.22-3.82-3.22-14.49-3.22-14.49l-.63-16.35S87.55,52.53,84.26,49.87Z"/><path class="cls-34" d="M72.07,43s-3.91,0-4.19-2.33c0-.28.17-.37,1.07-.05.59.21.92.56,1.31.28S69.62,39.6,70,39.4s2.48,1.34,2.48,1.34l.62.34,0,2.08Z"/><path class="cls-35" d="M85.87,32.31s-1.17-1.71-2.5-.24S79.68,40.5,78.92,41c-.37.25-6.33-.32-6.33-.32s.83.94-.45,2.58c0,0,7.61,3,9,1.43C83.52,42.06,86.79,35.11,85.87,32.31Z"/><path class="cls-36" d="M92.89,35.11c-.24-.17-7.83-4.41-8.81-3.68s-3.21,4.26-2.54,9.43a43,43,0,0,1-.35,9.34s7.56,5.75,12,2l-.34-2.82C92,41.73,96.05,37.38,92.89,35.11Z"/><path class="cls-37" d="M85.89,30.94a7,7,0,0,1,0,3.19c-.46,1.09,1.21,1.45,2,1.17s2-.82,1.88-1.53-.88-3-.42-3.84S85.89,30.94,85.89,30.94Z"/><path class="cls-34" d="M89.93,24.1A3.69,3.69,0,0,1,91.3,28a8.67,8.67,0,0,1-2.63,3.77c-.9.71-3.9,2.45-4.84.8s-1.16-6.33.88-8.45S89.93,24.1,89.93,24.1Z"/><path class="cls-38" d="M84.26,25.17a10.78,10.78,0,0,0,4.41,1.48c2,0,1.13.76.94,1.06s-.6,1.88.1,1.2c.27-.27.92-.89,1.12-.34s-1.3,1.94-1.35,2.41,3.47-2.64,3.35-5.27-2-4.18-5.55-3.62a8.88,8.88,0,0,0-4.15,1.48A4.86,4.86,0,0,0,84.26,25.17Z"/><path class="cls-34" d="M71.07,39.83s-1.9-1-1.48-.45,1.17,1.52,1.67,1.52S71.07,39.83,71.07,39.83Z"/><path class="cls-34" d="M84.75,50.89s-3.58,1.58-4.78-.4c-.14-.24,0-.42,1-.49.62-.06,1.07.13,1.31-.28s-.69-.78-.46-1.11,2.37,0,2.37,0l.71,0,.88,1.9Z"/><path class="cls-39" d="M93,35.17c-.49-.4-1.88-.8-2.49,1.09s.1,9.19-.39,10c-.23.38-5.91,2.3-5.91,2.3s1.15.51.66,2.54c0,0,8.16-.44,8.79-2.4C94.79,45.3,95.32,37,93,35.17Z"/><path class="cls-18" d="M80.16,46.86V70s-19.9,16-53.43,8c0,0-21.13-5.15-26.11-17.66V37.16S5.29,50.34,32.15,55.93C32.15,55.93,60.79,60.3,80.16,46.86Z"/><path class="cls-40" d="M58.76,66.36,58.52,73c.79-.19,1.55-.4,2.28-.62L61,65.69Z"/><path class="cls-40" d="M62,68.36l-.14,3.76c.72-.23,1.39-.46,2-.7L64,67.68Z"/><path class="cls-19" d="M66.21,59.16a27.66,27.66,0,0,0,11.84-4.7V52.34a28.83,28.83,0,0,1-11.84,4.43Z"/><path class="cls-19" d="M66.21,62.67A27.73,27.73,0,0,0,78.05,58V55.84a28.71,28.71,0,0,1-11.84,4.44Z"/><path class="cls-19" d="M66.21,67.05a27.73,27.73,0,0,0,11.84-4.71V60.22a28.71,28.71,0,0,1-11.84,4.44Z"/><path class="cls-19" d="M66.21,70.55a27.66,27.66,0,0,0,11.84-4.7V63.73a28.55,28.55,0,0,1-11.84,4.43Z"/><path class="cls-19" d="M.62,37.16s7.55,16.45,38,19.34c0,0,24.53,1.7,41.52-9.64v.79s-15,10.69-41.61,9.74c0,0-28.55-1.72-37.93-18.91Z"/><path class="cls-19" d="M.62,59.94s7.55,16.45,38,19.35c0,0,24.53,1.7,41.52-9.64v.78s-15,10.7-41.61,9.74c0,0-28.55-1.71-37.93-18.91Z"/><path class="cls-18" d="M30.06,58.26a68.45,68.45,0,0,1-17.35-6.59l-.1,2.84a62.78,62.78,0,0,0,12,5.06,75.28,75.28,0,0,0,28.22,2.58L52.93,59A90.07,90.07,0,0,1,30.06,58.26Z"/><path class="cls-18" d="M29.9,62.64a68.83,68.83,0,0,1-17.35-6.59l-.1,2.84a63.5,63.5,0,0,0,12,5.06,75.25,75.25,0,0,0,28.22,2.58l.11-3.16A90.07,90.07,0,0,1,29.9,62.64Z"/><path class="cls-18" d="M29.71,67.89a68.47,68.47,0,0,1-17.35-6.58l-.1,2.83a62.78,62.78,0,0,0,12,5.06,75.31,75.31,0,0,0,28.23,2.58l.11-3.15A89.78,89.78,0,0,1,29.71,67.89Z"/><path class="cls-18" d="M29.55,72.27A68.86,68.86,0,0,1,12.2,65.69l-.1,2.83a62.72,62.72,0,0,0,12,5.06,75.25,75.25,0,0,0,28.22,2.58L52.42,73A90.12,90.12,0,0,1,29.55,72.27Z"/><path class="cls-40" d="M55.19,59.13l-.53,14.45c1-.19,1.87-.39,2.77-.6L58,58.19Z"/><path class="cls-19" d="M1.67,42.44v2.69c1.62,4,5.64,7,9.51,9V51.3C3.35,47.16,1.67,42.44,1.67,42.44Z"/><path class="cls-19" d="M1.67,46.82v2.69c1.62,4.05,5.64,7,9.51,9V55.68C3.35,51.54,1.67,46.82,1.67,46.82Z"/><path class="cls-19" d="M1.67,52.08v2.68c1.62,4.06,5.64,7,9.51,9V60.94C3.35,56.8,1.67,52.08,1.67,52.08Z"/><path class="cls-19" d="M1.67,56.46v2.69c1.62,4.05,5.64,7,9.51,9V65.32C3.35,61.18,1.67,56.46,1.67,56.46Z"/></g></g></svg>